<svg xmlns="http://www.w3.org/2000/svg" xmlns:xlink="http://www.w3.org/1999/xlink" width="362" height="115" viewBox="0 0 362 115">
  <defs>
    <style>
      .cls-1 {
        fill: none;
      }

      .cls-2 {
        clip-path: url(#clip-path);
      }

      .cls-3 {
        fill: #e1f4fc;
      }
    </style>
    <clipPath id="clip-path">
      <rect class="cls-1" width="362" height="115"/>
    </clipPath>
  </defs>
  <g id="decoration_dots_2" transform="translate(-86.374 -69.73)">
    <g id="Repeat_Grid_1" data-name="Repeat Grid 1" class="cls-2" transform="translate(86.374 69.73)">
      <g transform="translate(-86.374 -69.73)">
        <circle id="Ellipse_42" data-name="Ellipse 42" class="cls-3" cx="3.5" cy="3.5" r="3.5" transform="translate(86.374 69.73)"/>
      </g>
      <g transform="translate(-59.374 -69.73)">
        <circle id="Ellipse_42-2" data-name="Ellipse 42" class="cls-3" cx="3.5" cy="3.5" r="3.5" transform="translate(86.374 69.73)"/>
      </g>
      <g transform="translate(-32.374 -69.73)">
        <circle id="Ellipse_42-3" data-name="Ellipse 42" class="cls-3" cx="3.5" cy="3.5" r="3.5" transform="translate(86.374 69.73)"/>
      </g>
      <g transform="translate(-5.374 -69.73)">
        <circle id="Ellipse_42-4" data-name="Ellipse 42" class="cls-3" cx="3.5" cy="3.5" r="3.5" transform="translate(86.374 69.73)"/>
      </g>
      <g transform="translate(21.626 -69.73)">
        <circle id="Ellipse_42-5" data-name="Ellipse 42" class="cls-3" cx="3.5" cy="3.5" r="3.5" transform="translate(86.374 69.73)"/>
      </g>
      <g transform="translate(48.626 -69.73)">
        <circle id="Ellipse_42-6" data-name="Ellipse 42" class="cls-3" cx="3.5" cy="3.5" r="3.5" transform="translate(86.374 69.73)"/>
      </g>
      <g transform="translate(75.626 -69.73)">
        <circle id="Ellipse_42-7" data-name="Ellipse 42" class="cls-3" cx="3.5" cy="3.5" r="3.5" transform="translate(86.374 69.73)"/>
      </g>
      <g transform="translate(102.626 -69.73)">
        <circle id="Ellipse_42-8" data-name="Ellipse 42" class="cls-3" cx="3.5" cy="3.5" r="3.5" transform="translate(86.374 69.73)"/>
      </g>
      <g transform="translate(129.626 -69.73)">
        <circle id="Ellipse_42-9" data-name="Ellipse 42" class="cls-3" cx="3.5" cy="3.5" r="3.5" transform="translate(86.374 69.73)"/>
      </g>
      <g transform="translate(156.626 -69.73)">
        <circle id="Ellipse_42-10" data-name="Ellipse 42" class="cls-3" cx="3.5" cy="3.5" r="3.5" transform="translate(86.374 69.73)"/>
      </g>
      <g transform="translate(183.626 -69.73)">
        <circle id="Ellipse_42-11" data-name="Ellipse 42" class="cls-3" cx="3.5" cy="3.5" r="3.5" transform="translate(86.374 69.73)"/>
      </g>
      <g transform="translate(210.626 -69.73)">
        <circle id="Ellipse_42-12" data-name="Ellipse 42" class="cls-3" cx="3.5" cy="3.5" r="3.5" transform="translate(86.374 69.73)"/>
      </g>
      <g transform="translate(237.626 -69.73)">
        <circle id="Ellipse_42-13" data-name="Ellipse 42" class="cls-3" cx="3.5" cy="3.5" r="3.5" transform="translate(86.374 69.73)"/>
      </g>
      <g transform="translate(264.626 -69.73)">
        <circle id="Ellipse_42-14" data-name="Ellipse 42" class="cls-3" cx="3.5" cy="3.5" r="3.5" transform="translate(86.374 69.73)"/>
      </g>
      <g transform="translate(-86.374 -42.73)">
        <circle id="Ellipse_42-15" data-name="Ellipse 42" class="cls-3" cx="3.5" cy="3.5" r="3.5" transform="translate(86.374 69.73)"/>
      </g>
      <g transform="translate(-59.374 -42.73)">
        <circle id="Ellipse_42-16" data-name="Ellipse 42" class="cls-3" cx="3.5" cy="3.5" r="3.5" transform="translate(86.374 69.73)"/>
      </g>
      <g transform="translate(-32.374 -42.73)">
        <circle id="Ellipse_42-17" data-name="Ellipse 42" class="cls-3" cx="3.5" cy="3.5" r="3.5" transform="translate(86.374 69.73)"/>
      </g>
      <g transform="translate(-5.374 -42.73)">
        <circle id="Ellipse_42-18" data-name="Ellipse 42" class="cls-3" cx="3.5" cy="3.5" r="3.5" transform="translate(86.374 69.73)"/>
      </g>
      <g transform="translate(21.626 -42.73)">
        <circle id="Ellipse_42-19" data-name="Ellipse 42" class="cls-3" cx="3.5" cy="3.5" r="3.5" transform="translate(86.374 69.73)"/>
      </g>
      <g transform="translate(48.626 -42.73)">
        <circle id="Ellipse_42-20" data-name="Ellipse 42" class="cls-3" cx="3.5" cy="3.5" r="3.5" transform="translate(86.374 69.73)"/>
      </g>
      <g transform="translate(75.626 -42.73)">
        <circle id="Ellipse_42-21" data-name="Ellipse 42" class="cls-3" cx="3.5" cy="3.5" r="3.5" transform="translate(86.374 69.73)"/>
      </g>
      <g transform="translate(102.626 -42.73)">
        <circle id="Ellipse_42-22" data-name="Ellipse 42" class="cls-3" cx="3.5" cy="3.5" r="3.5" transform="translate(86.374 69.73)"/>
      </g>
      <g transform="translate(129.626 -42.73)">
        <circle id="Ellipse_42-23" data-name="Ellipse 42" class="cls-3" cx="3.5" cy="3.5" r="3.5" transform="translate(86.374 69.73)"/>
      </g>
      <g transform="translate(156.626 -42.73)">
        <circle id="Ellipse_42-24" data-name="Ellipse 42" class="cls-3" cx="3.5" cy="3.5" r="3.5" transform="translate(86.374 69.73)"/>
      </g>
      <g transform="translate(183.626 -42.73)">
        <circle id="Ellipse_42-25" data-name="Ellipse 42" class="cls-3" cx="3.5" cy="3.5" r="3.5" transform="translate(86.374 69.73)"/>
      </g>
      <g transform="translate(210.626 -42.73)">
        <circle id="Ellipse_42-26" data-name="Ellipse 42" class="cls-3" cx="3.5" cy="3.5" r="3.5" transform="translate(86.374 69.73)"/>
      </g>
      <g transform="translate(237.626 -42.73)">
        <circle id="Ellipse_42-27" data-name="Ellipse 42" class="cls-3" cx="3.5" cy="3.5" r="3.5" transform="translate(86.374 69.73)"/>
      </g>
      <g transform="translate(264.626 -42.73)">
        <circle id="Ellipse_42-28" data-name="Ellipse 42" class="cls-3" cx="3.5" cy="3.5" r="3.5" transform="translate(86.374 69.73)"/>
      </g>
      <g transform="translate(-86.374 -15.73)">
        <circle id="Ellipse_42-29" data-name="Ellipse 42" class="cls-3" cx="3.5" cy="3.5" r="3.5" transform="translate(86.374 69.73)"/>
      </g>
      <g transform="translate(-59.374 -15.73)">
        <circle id="Ellipse_42-30" data-name="Ellipse 42" class="cls-3" cx="3.5" cy="3.5" r="3.5" transform="translate(86.374 69.73)"/>
      </g>
      <g transform="translate(-32.374 -15.73)">
        <circle id="Ellipse_42-31" data-name="Ellipse 42" class="cls-3" cx="3.5" cy="3.5" r="3.5" transform="translate(86.374 69.73)"/>
      </g>
      <g transform="translate(-5.374 -15.73)">
        <circle id="Ellipse_42-32" data-name="Ellipse 42" class="cls-3" cx="3.5" cy="3.5" r="3.5" transform="translate(86.374 69.73)"/>
      </g>
      <g transform="translate(21.626 -15.73)">
        <circle id="Ellipse_42-33" data-name="Ellipse 42" class="cls-3" cx="3.5" cy="3.5" r="3.5" transform="translate(86.374 69.73)"/>
      </g>
      <g transform="translate(48.626 -15.73)">
        <circle id="Ellipse_42-34" data-name="Ellipse 42" class="cls-3" cx="3.5" cy="3.5" r="3.5" transform="translate(86.374 69.73)"/>
      </g>
      <g transform="translate(75.626 -15.73)">
        <circle id="Ellipse_42-35" data-name="Ellipse 42" class="cls-3" cx="3.5" cy="3.5" r="3.5" transform="translate(86.374 69.73)"/>
      </g>
      <g transform="translate(102.626 -15.73)">
        <circle id="Ellipse_42-36" data-name="Ellipse 42" class="cls-3" cx="3.5" cy="3.5" r="3.5" transform="translate(86.374 69.73)"/>
      </g>
      <g transform="translate(129.626 -15.73)">
        <circle id="Ellipse_42-37" data-name="Ellipse 42" class="cls-3" cx="3.5" cy="3.5" r="3.5" transform="translate(86.374 69.73)"/>
      </g>
      <g transform="translate(156.626 -15.73)">
        <circle id="Ellipse_42-38" data-name="Ellipse 42" class="cls-3" cx="3.5" cy="3.5" r="3.5" transform="translate(86.374 69.73)"/>
      </g>
      <g transform="translate(183.626 -15.73)">
        <circle id="Ellipse_42-39" data-name="Ellipse 42" class="cls-3" cx="3.5" cy="3.5" r="3.5" transform="translate(86.374 69.73)"/>
      </g>
      <g transform="translate(210.626 -15.73)">
        <circle id="Ellipse_42-40" data-name="Ellipse 42" class="cls-3" cx="3.5" cy="3.5" r="3.5" transform="translate(86.374 69.73)"/>
      </g>
      <g transform="translate(237.626 -15.73)">
        <circle id="Ellipse_42-41" data-name="Ellipse 42" class="cls-3" cx="3.5" cy="3.5" r="3.5" transform="translate(86.374 69.73)"/>
      </g>
      <g transform="translate(264.626 -15.73)">
        <circle id="Ellipse_42-42" data-name="Ellipse 42" class="cls-3" cx="3.5" cy="3.5" r="3.5" transform="translate(86.374 69.73)"/>
      </g>
      <g transform="translate(-86.374 11.27)">
        <circle id="Ellipse_42-43" data-name="Ellipse 42" class="cls-3" cx="3.5" cy="3.5" r="3.5" transform="translate(86.374 69.73)"/>
      </g>
      <g transform="translate(-59.374 11.27)">
        <circle id="Ellipse_42-44" data-name="Ellipse 42" class="cls-3" cx="3.5" cy="3.5" r="3.5" transform="translate(86.374 69.73)"/>
      </g>
      <g transform="translate(-32.374 11.27)">
        <circle id="Ellipse_42-45" data-name="Ellipse 42" class="cls-3" cx="3.5" cy="3.5" r="3.5" transform="translate(86.374 69.73)"/>
      </g>
      <g transform="translate(-5.374 11.27)">
        <circle id="Ellipse_42-46" data-name="Ellipse 42" class="cls-3" cx="3.5" cy="3.5" r="3.5" transform="translate(86.374 69.73)"/>
      </g>
      <g transform="translate(21.626 11.27)">
        <circle id="Ellipse_42-47" data-name="Ellipse 42" class="cls-3" cx="3.5" cy="3.5" r="3.5" transform="translate(86.374 69.73)"/>
      </g>
      <g transform="translate(48.626 11.27)">
        <circle id="Ellipse_42-48" data-name="Ellipse 42" class="cls-3" cx="3.5" cy="3.5" r="3.5" transform="translate(86.374 69.73)"/>
      </g>
      <g transform="translate(75.626 11.27)">
        <circle id="Ellipse_42-49" data-name="Ellipse 42" class="cls-3" cx="3.5" cy="3.5" r="3.5" transform="translate(86.374 69.73)"/>
      </g>
      <g transform="translate(102.626 11.27)">
        <circle id="Ellipse_42-50" data-name="Ellipse 42" class="cls-3" cx="3.5" cy="3.5" r="3.5" transform="translate(86.374 69.73)"/>
      </g>
      <g transform="translate(129.626 11.27)">
        <circle id="Ellipse_42-51" data-name="Ellipse 42" class="cls-3" cx="3.5" cy="3.5" r="3.5" transform="translate(86.374 69.73)"/>
      </g>
      <g transform="translate(156.626 11.27)">
        <circle id="Ellipse_42-52" data-name="Ellipse 42" class="cls-3" cx="3.5" cy="3.5" r="3.5" transform="translate(86.374 69.73)"/>
      </g>
      <g transform="translate(183.626 11.27)">
        <circle id="Ellipse_42-53" data-name="Ellipse 42" class="cls-3" cx="3.5" cy="3.5" r="3.5" transform="translate(86.374 69.73)"/>
      </g>
      <g transform="translate(210.626 11.27)">
        <circle id="Ellipse_42-54" data-name="Ellipse 42" class="cls-3" cx="3.5" cy="3.5" r="3.5" transform="translate(86.374 69.73)"/>
      </g>
      <g transform="translate(237.626 11.27)">
        <circle id="Ellipse_42-55" data-name="Ellipse 42" class="cls-3" cx="3.5" cy="3.5" r="3.5" transform="translate(86.374 69.73)"/>
      </g>
      <g transform="translate(264.626 11.27)">
        <circle id="Ellipse_42-56" data-name="Ellipse 42" class="cls-3" cx="3.5" cy="3.5" r="3.5" transform="translate(86.374 69.73)"/>
      </g>
      <g transform="translate(-86.374 38.27)">
        <circle id="Ellipse_42-57" data-name="Ellipse 42" class="cls-3" cx="3.5" cy="3.5" r="3.5" transform="translate(86.374 69.73)"/>
      </g>
      <g transform="translate(-59.374 38.27)">
        <circle id="Ellipse_42-58" data-name="Ellipse 42" class="cls-3" cx="3.5" cy="3.5" r="3.5" transform="translate(86.374 69.73)"/>
      </g>
      <g transform="translate(-32.374 38.27)">
        <circle id="Ellipse_42-59" data-name="Ellipse 42" class="cls-3" cx="3.5" cy="3.5" r="3.5" transform="translate(86.374 69.73)"/>
      </g>
      <g transform="translate(-5.374 38.27)">
        <circle id="Ellipse_42-60" data-name="Ellipse 42" class="cls-3" cx="3.5" cy="3.5" r="3.5" transform="translate(86.374 69.73)"/>
      </g>
      <g transform="translate(21.626 38.27)">
        <circle id="Ellipse_42-61" data-name="Ellipse 42" class="cls-3" cx="3.5" cy="3.5" r="3.5" transform="translate(86.374 69.73)"/>
      </g>
      <g transform="translate(48.626 38.27)">
        <circle id="Ellipse_42-62" data-name="Ellipse 42" class="cls-3" cx="3.5" cy="3.5" r="3.5" transform="translate(86.374 69.73)"/>
      </g>
      <g transform="translate(75.626 38.27)">
        <circle id="Ellipse_42-63" data-name="Ellipse 42" class="cls-3" cx="3.5" cy="3.5" r="3.5" transform="translate(86.374 69.73)"/>
      </g>
      <g transform="translate(102.626 38.27)">
        <circle id="Ellipse_42-64" data-name="Ellipse 42" class="cls-3" cx="3.5" cy="3.5" r="3.5" transform="translate(86.374 69.73)"/>
      </g>
      <g transform="translate(129.626 38.27)">
        <circle id="Ellipse_42-65" data-name="Ellipse 42" class="cls-3" cx="3.5" cy="3.5" r="3.5" transform="translate(86.374 69.73)"/>
      </g>
      <g transform="translate(156.626 38.27)">
        <circle id="Ellipse_42-66" data-name="Ellipse 42" class="cls-3" cx="3.5" cy="3.5" r="3.5" transform="translate(86.374 69.73)"/>
      </g>
      <g transform="translate(183.626 38.27)">
        <circle id="Ellipse_42-67" data-name="Ellipse 42" class="cls-3" cx="3.5" cy="3.5" r="3.5" transform="translate(86.374 69.73)"/>
      </g>
      <g transform="translate(210.626 38.27)">
        <circle id="Ellipse_42-68" data-name="Ellipse 42" class="cls-3" cx="3.5" cy="3.5" r="3.5" transform="translate(86.374 69.73)"/>
      </g>
      <g transform="translate(237.626 38.27)">
        <circle id="Ellipse_42-69" data-name="Ellipse 42" class="cls-3" cx="3.5" cy="3.5" r="3.5" transform="translate(86.374 69.73)"/>
      </g>
      <g transform="translate(264.626 38.27)">
        <circle id="Ellipse_42-70" data-name="Ellipse 42" class="cls-3" cx="3.5" cy="3.5" r="3.5" transform="translate(86.374 69.73)"/>
      </g>
    </g>
  </g>
</svg>
