<svg xmlns="http://www.w3.org/2000/svg" width="30" height="30.002" viewBox="0 0 30 30.002">
    <defs>
        <style>
            .cls-1{fill:#fff}
        </style>
    </defs>
    <g id="icon_call" transform="translate(-98.221 -33)">
        <path id="Path_1126" d="M103 33c-.986 0-1.973-.016-2.959.005a1.768 1.768 0 0 0-1.82 1.838 25.763 25.763 0 0 0 2.793 12.557c3.566 6.623 8.585 11.516 15.829 13.919A33.465 33.465 0 0 0 126.97 63c.982.014 1.244-.275 1.246-1.23 0-1.868.01-3.736-.005-5.6a1.641 1.641 0 0 0-1.772-1.894 23.433 23.433 0 0 1-6.115-1.041c-1.379-.461-1.551-.41-2.423.767-.66.892-1.258 1.831-1.922 2.721-.5.669-.816.69-1.556.276a26.246 26.246 0 0 1-5.033-3.644 26.928 26.928 0 0 1-5.17-6.537c-.146-.259-.223-.442.056-.7 1.157-1.062 2.273-2.168 3.43-3.23a1.363 1.363 0 0 0 .409-1.531 13.225 13.225 0 0 1-.54-1.868 123.691 123.691 0 0 1-.633-5.291c-.09-.9-.33-1.191-1.235-1.193S103.9 33 103 33z" class="cls-1" data-name="Path 1126"/>
        <path id="Path_1127" d="M113.281 35.305a11.688 11.688 0 0 1 11.508 11.842.834.834 0 1 0 1.668.02 13.355 13.355 0 0 0-13.151-13.529.834.834 0 0 0-.025 1.667z" class="cls-1" data-name="Path 1127"/>
        <path id="Path_1128" d="M112.537 39.711a8.347 8.347 0 0 1 8.219 8.455.833.833 0 1 0 1.665.023 10.018 10.018 0 0 0-9.862-10.149.836.836 0 0 0-.022 1.671z" class="cls-1" data-name="Path 1128"/>
    </g>
</svg>
