<svg xmlns="http://www.w3.org/2000/svg" width="72" height="72" viewBox="0 0 72 72">
    <defs>
        <style>
            .cls-1{fill:none}.cls-2{fill:#05a3ed}
        </style>
    </defs>
    <g id="icon_practice" transform="translate(-229 -1490.5)">
        <path id="Rectangle_273" d="M0 0h72v72H0z" class="cls-1" data-name="Rectangle 273" transform="translate(229 1490.5)"/>
        <g id="Group_782" data-name="Group 782" transform="translate(-136.5 1034.441)">
            <g id="Group_780" data-name="Group 780">
                <path id="Path_1176" d="M399.5 503.5a8 8 0 1 1 5.657-2.339 7.978 7.978 0 0 1-5.657 2.339zm0-12.994a5 5 0 1 0 3.536 1.462 4.99 4.99 0 0 0-3.536-1.468z" class="cls-2" data-name="Path 1176"/>
                <path id="Path_1177" d="M399.5 513.492a18 18 0 1 1 8.208-34.017 1.5 1.5 0 0 1-1.369 2.67 15.011 15.011 0 1 0 3.768 2.748 1.5 1.5 0 0 1 2.121-2.121 17.992 17.992 0 0 1-12.728 30.72z" class="cls-2" data-name="Path 1177"/>
                <path id="Path_1178" d="M399.5 523.5a28 28 0 1 1 15.605-51.254 1.5 1.5 0 1 1-1.673 2.489 25.052 25.052 0 1 0 3.746 3.087 1.5 1.5 0 0 1 2.122-2.122 28 28 0 0 1-19.8 47.8z" class="cls-2" data-name="Path 1178"/>
            </g>
            <g id="Group_781" data-name="Group 781">
                <path id="Path_1179" d="M399.5 497a1.5 1.5 0 0 1-1.061-2.561l28.285-28.284a1.5 1.5 0 0 1 2.121 2.121l-28.284 28.285a1.5 1.5 0 0 1-1.061.439z" class="cls-2" data-name="Path 1179"/>
                <path id="Path_1180" d="M421.42 475.08a1.483 1.483 0 0 1-.4-.055 1.5 1.5 0 0 1-1.055-1.082l-1.414-5.656a1.5 1.5 0 0 1 .394-1.425l6.365-6.363a1.5 1.5 0 0 1 2.515.7l1.414 5.657a1.5 1.5 0 0 1-.394 1.424l-6.364 6.364a1.5 1.5 0 0 1-1.061.436zm.247-6.7l.566 2.263 3.89-3.89-.565-2.263z" class="cls-2" data-name="Path 1180"/>
                <path id="Path_1181" d="M427.077 476.494a1.511 1.511 0 0 1-.364-.045l-5.656-1.414a1.5 1.5 0 0 1-.7-2.516l6.364-6.364a1.5 1.5 0 0 1 1.424-.394l5.657 1.414a1.5 1.5 0 0 1 .7 2.515l-6.363 6.365a1.5 1.5 0 0 1-1.062.439zm-2.723-3.727l2.263.566 3.89-3.891-2.263-.565z" class="cls-2" data-name="Path 1181"/>
            </g>
        </g>
    </g>
</svg>
