<svg xmlns="http://www.w3.org/2000/svg" width="72" height="72" viewBox="0 0 72 72">
    <defs>
        <style>
            .cls-1{fill:none}.cls-2{fill:#05a3ed}
        </style>
    </defs>
    <g id="icon_protect" transform="translate(-238.632 -1720)">
        <path id="Rectangle_272" d="M0 0h72v72H0z" class="cls-1" data-name="Rectangle 272" transform="translate(238.632 1720)"/>
        <g id="Group_779" data-name="Group 779" transform="translate(90.132 1260)">
            <g id="Group_777" data-name="Group 777">
                <path id="Path_1170" d="M160.833 486.748a5.668 5.668 0 0 1-4.881-3.007c-1.176-2.2-.891-5.349 2.4-7.443 2-1.271 14.542-8.171 16.48-9.14A19.811 19.811 0 0 1 182.5 465h18a1.5 1.5 0 0 1 0 3h-18a17.1 17.1 0 0 0-6.329 1.842c-1.849.924-14.332 7.79-16.211 8.987-1.533.976-2.03 2.25-1.363 3.5a2.515 2.515 0 0 0 3.214 1.2c4.136-1.829 12.668-6.138 12.753-6.181a1.5 1.5 0 1 1 1.354 2.677c-.353.179-8.687 4.388-12.894 6.248a5.389 5.389 0 0 1-2.191.475z" class="cls-2" data-name="Path 1170"/>
                <path id="Path_1171" d="M204.5 487h-8a18.518 18.518 0 0 1-9.189-2.275 47.214 47.214 0 0 1-7.066-5.359 4.869 4.869 0 0 1 6.034-7.6c.453.271 1.725 1.117 3.2 2.1 1.429.95 2.906 1.933 3.532 2.32a1.5 1.5 0 1 1-1.577 2.552c-.668-.413-2.167-1.41-3.617-2.373-1.32-.879-2.686-1.787-3.078-2.022a1.817 1.817 0 0 0-2.629.326 1.837 1.837 0 0 0 .183 2.507 44.639 44.639 0 0 0 6.651 5.035A15.822 15.822 0 0 0 196.5 484h8a1.5 1.5 0 0 1 0 3z" class="cls-2" data-name="Path 1171"/>
                <path id="Path_1172" d="M215.5 489h-10a1.5 1.5 0 0 1-1.5-1.5v-22a1.5 1.5 0 0 1 1.5-1.5h10a1.5 1.5 0 0 1 0 3H207v19h8.5a1.5 1.5 0 0 1 0 3z" class="cls-2" data-name="Path 1172"/>
                <circle id="Ellipse_47" cx="1.5" cy="1.5" r="1.5" class="cls-2" data-name="Ellipse 47" transform="translate(209.5 479.5)"/>
            </g>
            <g id="Group_778" data-name="Group 778">
                <path id="Path_1173" d="M186 527h-18a1.5 1.5 0 0 1 0-3h18a17.1 17.1 0 0 0 6.329-1.842c1.849-.924 14.332-7.79 16.211-8.987 1.533-.976 2.03-2.25 1.363-3.5a2.512 2.512 0 0 0-3.214-1.2c-4.136 1.829-12.668 6.138-12.753 6.181a1.5 1.5 0 1 1-1.354-2.677c.353-.179 8.687-4.388 12.894-6.248a5.494 5.494 0 0 1 7.072 2.531c1.176 2.2.891 5.349-2.4 7.443-2 1.271-14.542 8.171-16.48 9.14A19.81 19.81 0 0 1 186 527z" class="cls-2" data-name="Path 1173"/>
                <path id="Path_1174" d="M185.016 521.064a5.41 5.41 0 0 1-2.8-.831c-.453-.271-1.725-1.117-3.2-2.1-1.429-.95-2.906-1.933-3.532-2.32a1.5 1.5 0 1 1 1.577-2.552c.668.413 2.167 1.41 3.617 2.373 1.32.879 2.686 1.787 3.078 2.022a1.816 1.816 0 0 0 2.629-.326 1.837 1.837 0 0 0-.183-2.507 44.635 44.635 0 0 0-6.651-5.035A15.822 15.822 0 0 0 172 508h-8a1.5 1.5 0 0 1 0-3h8a18.518 18.518 0 0 1 9.189 2.275 47.216 47.216 0 0 1 7.066 5.359 4.819 4.819 0 0 1 .533 6.505 4.742 4.742 0 0 1-3.772 1.925z" class="cls-2" data-name="Path 1174"/>
                <path id="Path_1175" d="M163 528h-10a1.5 1.5 0 0 1 0-3h8.5v-19H153a1.5 1.5 0 0 1 0-3h10a1.5 1.5 0 0 1 1.5 1.5v22a1.5 1.5 0 0 1-1.5 1.5z" class="cls-2" data-name="Path 1175"/>
                <circle id="Ellipse_48" cx="1.5" cy="1.5" r="1.5" class="cls-2" data-name="Ellipse 48" transform="translate(156 509.5)"/>
            </g>
        </g>
    </g>
</svg>
