<svg xmlns="http://www.w3.org/2000/svg" width="92" height="92" viewBox="0 0 92 92">
    <defs>
        <style>
            .cls-1{fill:none}.cls-2{fill:#05a3ed}
        </style>
    </defs>
    <g id="icon_email" transform="translate(-948.266 -102.306)">
        <path id="Rectangle_279" d="M0 0h92v92H0z" class="cls-1" data-name="Rectangle 279" transform="translate(948.266 102.306)"/>
        <g id="Group_788" data-name="Group 788" transform="translate(-194.734 -371.659)">
            <path id="Path_1233" d="M1190 522.835a17.5 17.5 0 1 1 17.5-17.5v5.334a6.821 6.821 0 0 1-12.956 3 9.5 9.5 0 1 1-4.563-17.831h.019a1.5 1.5 0 0 1 0 3 .055.055 0 0 1-.018 0 6.5 6.5 0 1 0 4.4 11.291 1.5 1.5 0 0 1 2.506.952 3.819 3.819 0 0 0 7.618-.4v-5.339a14.5 14.5 0 1 0-14.5 14.5 1.5 1.5 0 0 1 0 3z" class="cls-2" data-name="Path 1233"/>
            <path id="Path_1234" d="M1217.5 514a1.5 1.5 0 0 1-1.5-1.5v-24.78a2.723 2.723 0 0 0-2.72-2.72h-46.56a2.723 2.723 0 0 0-2.72 2.72v24.78a1.5 1.5 0 0 1-3 0v-24.78a5.726 5.726 0 0 1 5.72-5.72h46.56a5.726 5.726 0 0 1 5.72 5.72v24.78a1.5 1.5 0 0 1-1.5 1.5z" class="cls-2" data-name="Path 1234"/>
            <path id="Path_1235" d="M1229.5 564h-80a4.5 4.5 0 0 1-4.5-4.5v-48.073a5.361 5.361 0 0 1 2.15-4.281l14.038-10.447a1.5 1.5 0 1 1 1.791 2.406l-14.038 10.447a2.349 2.349 0 0 0-.941 1.875V559.5a1.5 1.5 0 0 0 1.5 1.5h80a1.5 1.5 0 0 0 1.5-1.5v-48.072a2.35 2.35 0 0 0-.941-1.876l-13.249-9.858a1.5 1.5 0 1 1 1.791-2.407l13.249 9.859a5.362 5.362 0 0 1 2.15 4.282V559.5a4.5 4.5 0 0 1-4.5 4.5z" class="cls-2" data-name="Path 1235"/>
            <path id="Path_1236" d="M1197.393 484.875a1.494 1.494 0 0 1-.895-.3l-5.577-4.151a2.4 2.4 0 0 0-2.845 0l-5.355 3.986a1.5 1.5 0 1 1-1.791-2.407l5.355-3.985a5.416 5.416 0 0 1 6.427 0l5.577 4.151a1.5 1.5 0 0 1-.9 2.7z" class="cls-2" data-name="Path 1236"/>
            <path id="Path_1237" d="M1231.5 562a1.492 1.492 0 0 1-.909-.308l-39.684-30.275a2.4 2.4 0 0 0-2.83.011l-39.666 30.264a1.5 1.5 0 0 1-1.82-2.384l39.681-30.275a5.42 5.42 0 0 1 6.441-.011l39.7 30.286a1.5 1.5 0 0 1-.913 2.692z" class="cls-2" data-name="Path 1237"/>
            <path id="Path_1238" d="M1173.5 531a1.5 1.5 0 0 1-.914-.311l-26-20a1.5 1.5 0 0 1 1.83-2.378l26 20a1.5 1.5 0 0 1-.916 2.689z" class="cls-2" data-name="Path 1238"/>
            <path id="Path_1239" d="M1205.5 532a1.5 1.5 0 0 1-.916-2.689l26-20a1.5 1.5 0 0 1 1.83 2.378l-26 20a1.5 1.5 0 0 1-.914.311z" class="cls-2" data-name="Path 1239"/>
        </g>
    </g>
</svg>
