<svg xmlns="http://www.w3.org/2000/svg" width="72" height="72" viewBox="0 0 72 72">
    <defs>
        <style>
            .cls-1{fill:none}.cls-2{fill:#45c4ff}
        </style>
    </defs>
    <g id="icon_tax_expert_select" transform="translate(-2.256 -331.995)">
        <path id="Rectangle_275" d="M0 0h72v72H0z" class="cls-1" data-name="Rectangle 275" transform="translate(2.256 331.995)"/>
        <g id="Group_784" data-name="Group 784" transform="translate(-798.744 -141.005)">
            <path id="Path_1182" d="M836.9 500a8.455 8.455 0 0 1 1.4.121 8.029 8.029 0 0 1 6.359 6.1 9.919 9.919 0 0 1 .054 3.907c-.1.582-.168 1.17-.258 1.8H846c-.111.561-.237 1.058-.3 1.563a.818.818 0 0 1-.606.694c-.4.169-.771.407-1.168.581-.462.2-.529.671-.717 1.047-.542 1.088-1.014 2.215-1.594 3.28a5.711 5.711 0 0 1-1.079 1.242c-.429.423-.9.807-1.36 1.193a1.936 1.936 0 0 1-1.276.472h-.019c-.322 0-.643-.005-.965-.005-.282 0-.563 0-.845.006h-.041a1.759 1.759 0 0 1-1.178-.387 27.106 27.106 0 0 1-2.356-2.133 6.464 6.464 0 0 1-.885-1.614c-.442-.914-.834-1.853-1.3-2.751-.124-.238-.446-.377-.693-.537-.27-.174-.573-.3-.83-.487a1.071 1.071 0 0 1-.354-.477c-.149-.425-.252-.867-.37-1.3-.027-.1-.037-.2-.064-.361h1.45c-.091-.689-.233-1.343-.253-2a18.254 18.254 0 0 1 .05-3.358 7.666 7.666 0 0 1 3.32-5.194A7.4 7.4 0 0 1 836.9 500m0-3a10.361 10.361 0 0 0-6.061 1.94 10.681 10.681 0 0 0-4.558 7.18 16.851 16.851 0 0 0-.1 3.349v.094a2.965 2.965 0 0 0-.477.454 3 3 0 0 0-.661 2.444l.014.088a4.888 4.888 0 0 0 .109.542l.077.292c.1.369.2.787.361 1.227A4.036 4.036 0 0 0 827 516.5a6.466 6.466 0 0 0 .839.516l.092.048c.149.311.3.635.451.97.174.38.348.76.53 1.136.051.106.1.214.147.323a7.064 7.064 0 0 0 1.236 2.022 24.04 24.04 0 0 0 2.208 2.036l.4.341a4.734 4.734 0 0 0 3.131 1.108h.085c.267 0 .534-.005.8-.005q.469 0 .938.005a4.962 4.962 0 0 0 3.24-1.161l.116-.1c.464-.387.944-.787 1.425-1.261l.14-.136a7.5 7.5 0 0 0 1.469-1.809c.4-.727.733-1.448 1.058-2.146.192-.411.384-.823.587-1.229l.012-.025c.117-.062.232-.127.354-.179a3.775 3.775 0 0 0 2.416-3.084c.028-.222.086-.494.153-.808.038-.177.077-.359.114-.547a3 3 0 0 0-1.117-2.962 12.734 12.734 0 0 0-.23-3.981 11.02 11.02 0 0 0-8.786-8.41A11.389 11.389 0 0 0 836.9 497z" class="cls-2" data-name="Path 1182"/>
            <path id="Path_1183" d="M840 541.5h-6a1.5 1.5 0 0 1-1.455-1.864l.812-3.25a1.6 1.6 0 0 0 0-.772l-.7-2.806a1.5 1.5 0 0 1 .784-1.7l.889-.445a1.5 1.5 0 0 1 .67-.163h4a1.5 1.5 0 0 1 .671.158l.889.445a1.5 1.5 0 0 1 .784 1.7l-.7 2.806a1.6 1.6 0 0 0 0 .772l.812 3.25A1.5 1.5 0 0 1 840 541.5zm-4.079-3h2.158l-.347-1.387a4.606 4.606 0 0 1 0-2.226l.347-1.387h-2.158l.347 1.387a4.606 4.606 0 0 1 0 2.226z" class="cls-2" data-name="Path 1183"/>
            <path id="Path_1184" d="M857.593 541.5q-20.594-.013-41.181 0a1.9 1.9 0 0 1-1.361-.572 1.932 1.932 0 0 1-.547-1.383c.011-.509.011-1.019.01-1.528 0-.865 0-1.759.051-2.657a5.912 5.912 0 0 1 2.676-4.673 11.052 11.052 0 0 1 1.9-.976l.277-.12c1.157-.507 2.321-.994 3.486-1.481l.525-.219q.887-.371 1.776-.736l5.22-2.182a1.5 1.5 0 0 1 2.081 1.382v5.218l3.829-1.915a1.5 1.5 0 0 1 1.342 0l3.829 1.915v-5.086a1.5 1.5 0 0 1 2.069-1.388l.194.08c5.875 2.409 11.685 4.8 12.57 5.229a1.593 1.593 0 0 1 .156.087 6.489 6.489 0 0 1 2.625 3.265 7.032 7.032 0 0 1 .379 2.467v1.373c0 .651 0 1.3.006 1.953a1.905 1.905 0 0 1-.517 1.409 1.876 1.876 0 0 1-1.395.538zm-41.183-3zm20.59-.007q9.746 0 19.492.007v-2.259a4.251 4.251 0 0 0-.192-1.439 3.5 3.5 0 0 0-1.363-1.736c-1.006-.466-6.435-2.7-10.438-4.343V534a1.5 1.5 0 0 1-2.171 1.342L837 532.677l-5.329 2.665A1.5 1.5 0 0 1 829.5 534v-5.387l-3.159 1.316q-.88.363-1.76.729l-.525.22c-1.15.48-2.3.961-3.441 1.461l-.292.126a8.459 8.459 0 0 0-1.391.7 2.972 2.972 0 0 0-1.376 2.37c-.047.811-.046 1.623-.046 2.482v.484q9.747-.008 19.49-.008z" class="cls-2" data-name="Path 1184"/>
            <path id="Path_1185" d="M809 536a5 5 0 1 1 5-5 5.006 5.006 0 0 1-5 5zm0-7a2 2 0 1 0 2 2 2 2 0 0 0-2-2z" class="cls-2" data-name="Path 1185"/>
            <path id="Path_1186" d="M809 505a5 5 0 1 1 5-5 5.006 5.006 0 0 1-5 5zm0-7a2 2 0 1 0 2 2 2 2 0 0 0-2-2z" class="cls-2" data-name="Path 1186"/>
            <path id="Path_1187" d="M837 487a5 5 0 1 1 5-5 5.006 5.006 0 0 1-5 5zm0-7a2 2 0 1 0 2 2 2 2 0 0 0-2-2z" class="cls-2" data-name="Path 1187"/>
            <path id="Path_1188" d="M865 536a5 5 0 1 1 5-5 5.006 5.006 0 0 1-5 5zm0-7a2 2 0 1 0 2 2 2 2 0 0 0-2-2z" class="cls-2" data-name="Path 1188"/>
            <path id="Path_1189" d="M865 505a5 5 0 1 1 5-5 5.006 5.006 0 0 1-5 5zm0-7a2 2 0 1 0 2 2 2 2 0 0 0-2-2z" class="cls-2" data-name="Path 1189"/>
            <g id="Group_783" data-name="Group 783">
                <path id="Path_1190" d="M809 513.983a1 1 0 0 0-1 1v1.035a1 1 0 0 0 2 0v-1.035a1 1 0 0 0-1-1z" class="cls-2" data-name="Path 1190"/>
                <path id="Path_1191" d="M809 508.811a1 1 0 0 0-1 1v1.034a1 1 0 0 0 2 0v-1.034a1 1 0 0 0-1-1z" class="cls-2" data-name="Path 1191"/>
                <path id="Path_1192" d="M809 503.638a1 1 0 0 0-1 1v1.035a1 1 0 0 0 2 0v-1.035a1 1 0 0 0-1-1z" class="cls-2" data-name="Path 1192"/>
                <path id="Path_1193" d="M809 519.155a1 1 0 0 0-1 1v1.035a1 1 0 0 0 2 0v-1.035a1 1 0 0 0-1-1z" class="cls-2" data-name="Path 1193"/>
                <path id="Path_1194" d="M809 524.328a1 1 0 0 0-1 1v1.034a1 1 0 0 0 2 0v-1.034a1 1 0 0 0-1-1z" class="cls-2" data-name="Path 1194"/>
                <path id="Path_1195" d="M812.617 498.676a.994.994 0 0 0 .54-.159l.8-.514a1 1 0 0 0-1.082-1.682l-.8.513a1 1 0 0 0 .542 1.842z" class="cls-2" data-name="Path 1195"/>
                <path id="Path_1196" d="M820.6 493.541a1 1 0 0 0 .54-.159l.8-.513a1 1 0 1 0-1.081-1.683l-.8.513a1 1 0 0 0 .541 1.842z" class="cls-2" data-name="Path 1196"/>
                <path id="Path_1197" d="M833.925 485.166a1 1 0 1 0-1.081-1.683l-.8.514a1 1 0 1 0 1.081 1.682z" class="cls-2" data-name="Path 1197"/>
                <path id="Path_1198" d="M824.6 490.973a.994.994 0 0 0 .54-.159l.8-.513a1 1 0 1 0-1.082-1.683l-.8.514a1 1 0 0 0 .542 1.841z" class="cls-2" data-name="Path 1198"/>
                <path id="Path_1199" d="M816.611 496.108a.994.994 0 0 0 .54-.159l.8-.513a1 1 0 1 0-1.082-1.682l-.8.514a1 1 0 0 0 .542 1.84z" class="cls-2" data-name="Path 1199"/>
                <path id="Path_1200" d="M828.592 488.406a1 1 0 0 0 .54-.159l.8-.514a1 1 0 0 0-1.082-1.682l-.8.513a1 1 0 0 0 .542 1.842z" class="cls-2" data-name="Path 1200"/>
                <path id="Path_1201" d="M841.956 484l-.8-.514a1 1 0 1 0-1.082 1.683l.8.513a1 1 0 0 0 1.082-1.682z" class="cls-2" data-name="Path 1201"/>
                <path id="Path_1202" d="M844.069 487.732l.8.514a1 1 0 1 0 1.082-1.682l-.8-.513a1 1 0 1 0-1.082 1.681z" class="cls-2" data-name="Path 1202"/>
                <path id="Path_1203" d="M848.063 490.3l.8.513a1 1 0 1 0 1.081-1.683l-.8-.513a1 1 0 0 0-1.081 1.683z" class="cls-2" data-name="Path 1203"/>
                <path id="Path_1204" d="M861.925 496.834l-.8-.513a1 1 0 1 0-1.08 1.679l.8.514a1 1 0 1 0 1.081-1.683z" class="cls-2" data-name="Path 1204"/>
                <path id="Path_1205" d="M857.931 494.267l-.8-.514a1 1 0 0 0-1.082 1.683l.8.513a1 1 0 0 0 1.082-1.682z" class="cls-2" data-name="Path 1205"/>
                <path id="Path_1206" d="M852.057 492.868l.8.514a1 1 0 1 0 1.082-1.683l-.8-.513a1 1 0 1 0-1.082 1.682z" class="cls-2" data-name="Path 1206"/>
                <path id="Path_1207" d="M865 513.982a1 1 0 0 0-1 1v1.035a1 1 0 0 0 2 0v-1.035a1 1 0 0 0-1-1z" class="cls-2" data-name="Path 1207"/>
                <path id="Path_1208" d="M865 519.155a1 1 0 0 0-1 1v1.034a1 1 0 0 0 2 0v-1.034a1 1 0 0 0-1-1z" class="cls-2" data-name="Path 1208"/>
                <path id="Path_1209" d="M865 524.327a1 1 0 0 0-1 1v1.035a1 1 0 0 0 2 0v-1.035a1 1 0 0 0-1-1z" class="cls-2" data-name="Path 1209"/>
                <path id="Path_1210" d="M865 503.638a1 1 0 0 0-1 1v1.034a1 1 0 0 0 2 0v-1.034a1 1 0 0 0-1-1z" class="cls-2" data-name="Path 1210"/>
                <path id="Path_1211" d="M865 508.81a1 1 0 0 0-1 1v1.035a1 1 0 0 0 2 0v-1.035a1 1 0 0 0-1-1z" class="cls-2" data-name="Path 1211"/>
                <path id="Path_1212" d="M861.784 527.868l-.827-.505a1 1 0 1 0-1.041 1.708l.827.505a1 1 0 1 0 1.041-1.708z" class="cls-2" data-name="Path 1212"/>
                <path id="Path_1213" d="M813.043 527.363l-.827.5a1 1 0 0 0 1.041 1.708l.827-.5a1 1 0 1 0-1.041-1.708z" class="cls-2" data-name="Path 1213"/>
                <path id="Path_1214" d="M857.647 525.345l-.827-.5a1 1 0 1 0-1.041 1.708l.827.5a1 1 0 0 0 1.041-1.708z" class="cls-2" data-name="Path 1214"/>
                <path id="Path_1215" d="M825.454 519.795l-.827.505a1 1 0 0 0 1.041 1.708l.827-.505a1 1 0 1 0-1.041-1.708z" class="cls-2" data-name="Path 1215"/>
                <path id="Path_1216" d="M853.51 522.823l-.827-.505a1 1 0 1 0-1.041 1.708l.827.505a1 1 0 1 0 1.041-1.708z" class="cls-2" data-name="Path 1216"/>
                <path id="Path_1217" d="M821.317 522.318l-.827.5a1 1 0 0 0 1.041 1.708l.827-.5a1 1 0 1 0-1.041-1.708z" class="cls-2" data-name="Path 1217"/>
                <path id="Path_1218" d="M817.18 524.84l-.827.5a1 1 0 0 0 1.041 1.708l.827-.505a1 1 0 1 0-1.041-1.708z" class="cls-2" data-name="Path 1218"/>
                <path id="Path_1219" d="M849.374 520.3l-.828-.505a1 1 0 0 0-1.046 1.705l.828.505a1 1 0 0 0 1.042-1.707z" class="cls-2" data-name="Path 1219"/>
                <path id="Path_1220" d="M824.364 507.278a1 1 0 0 0-.476-1.332l-.9-.428a1 1 0 1 0-.856 1.807l.9.428a.988.988 0 0 0 .427.1 1 1 0 0 0 .905-.575z" class="cls-2" data-name="Path 1220"/>
                <path id="Path_1221" d="M819.369 503.8l-.9-.428a1 1 0 0 0-.857 1.808l.9.428a1 1 0 0 0 .856-1.808z" class="cls-2" data-name="Path 1221"/>
                <path id="Path_1222" d="M814.85 501.665l-.9-.428a1 1 0 0 0-.855 1.807l.9.428a.984.984 0 0 0 .427.1 1 1 0 0 0 .428-1.9z" class="cls-2" data-name="Path 1222"/>
                <path id="Path_1223" d="M852.348 505.993a1 1 0 0 0-1.332-.475l-.9.428a1 1 0 0 0 .429 1.9.988.988 0 0 0 .427-.1l.9-.428a1 1 0 0 0 .476-1.325z" class="cls-2" data-name="Path 1223"/>
                <path id="Path_1224" d="M856.391 505.185a1 1 0 0 0-.857-1.808l-.9.428a1 1 0 0 0 .856 1.808z" class="cls-2" data-name="Path 1224"/>
                <path id="Path_1225" d="M860.005 503.472l.9-.428a1 1 0 0 0-.855-1.807l-.9.428a1 1 0 0 0 .428 1.9.984.984 0 0 0 .427-.093z" class="cls-2" data-name="Path 1225"/>
            </g>
        </g>
    </g>
</svg>
