<svg xmlns="http://www.w3.org/2000/svg" width="72" height="72" viewBox="0 0 72 72">
    <defs>
        <style>
            .cls-1{fill:none}.cls-2{fill:#05a3ed}
        </style>
    </defs>
    <g id="icon_pin" transform="translate(204 -1834.945)">
        <path id="Rectangle_274" d="M0 0h72v72H0z" class="cls-1" data-name="Rectangle 274" transform="translate(-204 1834.945)"/>
        <g id="Group_785" data-name="Group 785" transform="translate(-773.101 1371.465)">
            <path id="Path_1226" d="M604.623 532.667a3.508 3.508 0 0 1-2.5-1.032L584.289 513.8a28.032 28.032 0 0 1 0-39.6l.535-.535a28.031 28.031 0 0 1 39.6 0l.535.535a28.03 28.03 0 0 1 0 39.6l-17.835 17.835a3.506 3.506 0 0 1-2.501 1.032zm0-64.189a24.922 24.922 0 0 0-17.678 7.31l-.535.535a25.03 25.03 0 0 0 0 35.356l17.835 17.835a.541.541 0 0 0 .754 0l17.836-17.835a25.028 25.028 0 0 0 0-35.356l-.535-.535a24.925 24.925 0 0 0-17.677-7.31z" class="cls-2" data-name="Path 1226"/>
            <path id="Path_1227" d="M604.622 506.717a12.457 12.457 0 0 1-8.838-3.655l-.222-.223a12.511 12.511 0 0 1 0-17.677l.222-.222a12.513 12.513 0 0 1 17.677 0l.222.222a12.513 12.513 0 0 1 0 17.677l-.222.223a12.461 12.461 0 0 1-8.839 3.655zm0-22.434a9.469 9.469 0 0 0-6.717 2.778l-.222.222a9.511 9.511 0 0 0 0 13.435l.222.222a9.51 9.51 0 0 0 13.435 0l.222-.222a9.511 9.511 0 0 0 0-13.435l-.222-.222a9.471 9.471 0 0 0-6.718-2.778z" class="cls-2" data-name="Path 1227"/>
        </g>
    </g>
</svg>
