<svg xmlns="http://www.w3.org/2000/svg" width="29" height="24" viewBox="0 0 29 24">
    <defs>
        <style>
            .cls-1{fill:#084271}
        </style>
    </defs>
    <g id="icon_quotes" transform="translate(-130.409 -198.738)">
        <path id="Path_1125" d="M142.409 210.509v12.229h-12v-8.059A21.253 21.253 0 0 1 132 206.31a24.449 24.449 0 0 1 5.4-7.572l4.517 3.542a25.431 25.431 0 0 0-3.277 4.251 11.8 11.8 0 0 0-1.505 3.978zm17 0v12.229h-12v-8.059a21.253 21.253 0 0 1 1.594-8.369 24.448 24.448 0 0 1 5.4-7.572l4.516 3.542a25.831 25.831 0 0 0-3.277 4.251 11.793 11.793 0 0 0-1.505 3.978z" class="cls-1" data-name="Path 1125"/>
    </g>
</svg>
