<svg xmlns="http://www.w3.org/2000/svg" width="72" height="72.219" viewBox="0 0 72 72.219">
    <defs>
        <style>
            .cls-1{fill:none}.cls-2{fill:#05a3ed}
        </style>
    </defs>
    <g id="icon_spare" transform="translate(12.959 325)">
        <path id="Rectangle_276" d="M0 0h72v72H0z" class="cls-1" data-name="Rectangle 276" transform="translate(-12.959 -325)"/>
        <g id="Group_786" data-name="Group 786" transform="translate(-700.413 -793)">
            <path id="Path_1228" d="M699.819 537.614a1.5 1.5 0 0 1-1.438-1.928 127.1 127.1 0 0 0 4.366-29.483c.056-10.735-7.163-36.035-7.235-36.289a1.5 1.5 0 0 1 2.458-1.517 188.554 188.554 0 0 1 17.167 18.708c11.733 14.672 18.384 27.7 19.77 38.729a1.5 1.5 0 0 1-.406 1.225 1.487 1.487 0 0 1-1.206.457c-9.023-.758-32.622 9.858-32.859 9.965a1.5 1.5 0 0 1-.617.133zm.046-63.154c2.163 8.19 5.929 23.643 5.882 31.774v.027a130.815 130.815 0 0 1-3.679 27.236c6.264-2.666 21.179-8.651 29.6-9-3.406-19.385-23.243-41.325-31.803-50.037zm4.382 31.766z" class="cls-2" data-name="Path 1228"/>
            <path id="Path_1229" d="M717.531 540.219a1.5 1.5 0 0 1-1.444-1.909c.011-.039 1.1-3.926 2.248-10.026a1.5 1.5 0 0 1 1.005-1.148 48.906 48.906 0 0 1 12.351-2.641c-1.322-8.092-5.534-17.45-12.54-27.85a1.5 1.5 0 0 1-.229-.557c-2.111-11.066-5.663-23.511-5.7-23.635a1.5 1.5 0 0 1 2.483-1.494 185.7 185.7 0 0 1 16.438 18.728c11.236 14.689 17.621 27.751 18.977 38.822a1.5 1.5 0 0 1-1.611 1.677c-9.059-.742-31.11 9.779-31.331 9.885a1.5 1.5 0 0 1-.647.148zm3.586-10.505c-.5 2.6-.979 4.74-1.356 6.323 6-2.7 19.864-8.534 28.133-8.87-3.278-19.3-21.931-41.025-30.259-49.92 1.223 4.652 2.932 11.521 4.176 17.977 7.666 11.436 12.072 21.739 13.1 30.625a1.5 1.5 0 0 1-1.606 1.668c-2.741-.209-7.045.567-12.188 2.197z" class="cls-2" data-name="Path 1229"/>
        </g>
    </g>
</svg>
