<svg xmlns="http://www.w3.org/2000/svg" width="36" height="36" viewBox="0 0 36 36">
    <defs>
        <style>
            .cls-1{fill:#fff}
        </style>
    </defs>
    <path id="icon_user" d="M67 48a18 18 0 1 0-30.158 13.26l-.017.015.584.492c.038.032.08.058.117.09a19.047 19.047 0 0 0 1.279.965q.525.362 1.075.686l.241.139c.4.228.811.444 1.231.641.03.015.062.028.093.042a17.793 17.793 0 0 0 4.355 1.378l.12.022c.474.081.953.147 1.438.191.059.005.118.008.178.014.483.039.971.065 1.466.065s.974-.026 1.454-.064l.183-.014q.721-.066 1.426-.188l.122-.022a17.859 17.859 0 0 0 4.292-1.345l.15-.068c.4-.19.8-.4 1.185-.613.1-.054.192-.109.287-.165.353-.208.7-.425 1.035-.655.121-.082.24-.169.36-.256.287-.207.569-.42.843-.643.061-.049.127-.092.186-.142l.6-.5-.025-.015A17.957 17.957 0 0 0 67 48zm-34.691 0a16.691 16.691 0 1 1 27.76 12.478 4.948 4.948 0 0 0-.584-.352l-5.543-2.771a1.449 1.449 0 0 1-.806-1.3v-1.94c.128-.158.264-.337.4-.534a13.347 13.347 0 0 0 1.712-3.354 2.374 2.374 0 0 0 1.365-2.152v-2.321a2.377 2.377 0 0 0-.581-1.55v-3.055a5.277 5.277 0 0 0-1.232-3.838c-1.206-1.378-3.159-2.075-5.8-2.075s-4.6.7-5.8 2.074a5.278 5.278 0 0 0-1.232 3.838V44.2a2.385 2.385 0 0 0-.581 1.551v2.32a2.378 2.378 0 0 0 .877 1.846 12.27 12.27 0 0 0 2.021 4.183V56a1.46 1.46 0 0 1-.761 1.281L38.349 60.1a4.863 4.863 0 0 0-.493.312A16.652 16.652 0 0 1 32.309 48z" class="cls-1" transform="translate(-31 -30)"/>
</svg>
