<svg xmlns="http://www.w3.org/2000/svg" width="72" height="72" viewBox="0 0 72 72">
    <defs>
        <style>
            .cls-1{fill:none}.cls-2{fill:#05a3ed}
        </style>
    </defs>
    <g id="icon_phone" transform="translate(43.6 500.262)">
        <path id="Rectangle_277" d="M0 0h72v72H0z" class="cls-1" data-name="Rectangle 277" transform="translate(-43.6 -500.262)"/>
        <g id="Group_787" data-name="Group 787" transform="translate(-524.1 -972.76)">
            <path id="Path_1230" d="M534.477 537.5a24.281 24.281 0 0 1-8.215-1.562 1.369 1.369 0 0 1-.162-.07 1.217 1.217 0 0 1-.107-.035c-6.579-2.442-13.825-7.589-21.535-15.3-16.769-16.767-18.15-28.078-16.356-34.614a6.649 6.649 0 0 1 3.056-3.951l5.063-3.038a3.024 3.024 0 0 1 4.084.919l8.091 12.142a3.058 3.058 0 0 1-.656 4.072l-4.552 3.54a2.015 2.015 0 0 0-.539 2.574l.367.666c1.235 2.266 2.767 5.076 8.413 10.721s8.454 7.176 10.711 8.408l.666.366a2.012 2.012 0 0 0 2.577-.524l3.543-4.556A3.059 3.059 0 0 1 533 516.6l12.149 8.1a3.024 3.024 0 0 1 .922 4.078l-3.046 5.078a6.629 6.629 0 0 1-3.931 3.038 17.333 17.333 0 0 1-4.617.606zm-7.109-4.353c4.053 1.446 7.725 1.736 10.916.858a3.642 3.642 0 0 0 2.155-1.676l3.055-5.093a.028.028 0 0 0-.009-.038l-12.147-8.1-3.58 4.553a5.018 5.018 0 0 1-6.409 1.314l-.647-.356c-2.425-1.322-5.445-2.97-11.394-8.919s-7.6-8.971-8.922-11.4l-.359-.652a5.022 5.022 0 0 1 1.329-6.407l4.537-3.528-8.085-12.188-5.121 3.038a3.669 3.669 0 0 0-1.7 2.177c-1.579 5.755-.161 15.938 15.588 31.686 7.377 7.375 14.238 12.28 20.393 14.582a2.555 2.555 0 0 1 .4.15zm17.413-5.14z" class="cls-2" data-name="Path 1230"/>
            <path id="Path_1231" d="M540.871 524.781a1.5 1.5 0 0 1-1.281-2.279 27.006 27.006 0 0 0-23.09-41 1.5 1.5 0 0 1 0-3 30.007 30.007 0 0 1 25.654 45.561 1.5 1.5 0 0 1-1.283.718z" class="cls-2" data-name="Path 1231"/>
            <path id="Path_1232" d="M516.5 538.5a30.034 30.034 0 0 1-30-30 1.5 1.5 0 0 1 3 0 27.018 27.018 0 0 0 36.652 25.224 1.5 1.5 0 0 1 1.073 2.8A29.882 29.882 0 0 1 516.5 538.5z" class="cls-2" data-name="Path 1232"/>
        </g>
    </g>
</svg>
