<svg xmlns="http://www.w3.org/2000/svg" width="92" height="92" viewBox="0 0 92 92">
    <defs>
        <style>
            .cls-1{fill:none}.cls-2{fill:#05a3ed}
        </style>
    </defs>
    <g id="icon_phone_big" transform="translate(-478.811 -105.224)">
        <path id="Rectangle_278" d="M0 0h92v92H0z" class="cls-1" data-name="Rectangle 278" transform="translate(478.811 105.224)"/>
        <g id="Group_790" data-name="Group 790" transform="translate(-963.689 -369.274)">
            <g id="Layer_4_copy" data-name="Layer 4 copy">
                <path id="Path_1244" d="M1513.97 561.5a34.058 34.058 0 0 1-11.519-2.194 1.461 1.461 0 0 1-.228-.1 1.388 1.388 0 0 1-.152-.044c-9.311-3.457-19.585-10.76-30.534-21.705-23.736-23.736-25.718-39.653-23.2-48.826a8.861 8.861 0 0 1 4.07-5.26l7.24-4.343a3.679 3.679 0 0 1 4.968 1.118l11.56 17.346a3.722 3.722 0 0 1-.8 4.955l-6.5 5.056a3.52 3.52 0 0 0-.937 4.5l.522.948c1.785 3.273 4 7.333 12.128 15.46s12.19 10.343 15.452 12.122l.946.522a3.519 3.519 0 0 0 4.5-.921l5.061-6.505a3.721 3.721 0 0 1 4.952-.808l17.354 11.574a3.677 3.677 0 0 1 1.123 4.96l-4.352 7.255a8.835 8.835 0 0 1-5.24 4.054 24.106 24.106 0 0 1-6.414.836zm-10.406-4.982c5.931 2.121 11.317 2.542 16.013 1.252a5.858 5.858 0 0 0 3.466-2.691l4.36-7.27a.681.681 0 0 0-.21-.92l-17.351-11.573a.7.7 0 0 0-.931.155l-5.049 6.49a6.522 6.522 0 0 1-8.333 1.711l-.928-.511c-3.428-1.87-7.7-4.2-16.134-12.634s-10.764-12.7-12.635-16.134l-.517-.939a6.528 6.528 0 0 1 1.728-8.33l6.485-5.045a.7.7 0 0 0 .147-.932l-11.557-17.343a.688.688 0 0 0-.926-.209l-7.256 4.353a5.876 5.876 0 0 0-2.709 3.486c-2.3 8.393-.286 23.181 22.431 45.9 10.615 10.611 20.5 17.672 29.389 20.989a2.907 2.907 0 0 1 .517.199zm25.125-7.938z" class="cls-2" data-name="Path 1244"/>
                <path id="Path_1245" d="M1522.2 543.246a1.5 1.5 0 0 1-1.281-2.28A38.507 38.507 0 0 0 1488 482.5a1.5 1.5 0 0 1 0-3 41.509 41.509 0 0 1 35.488 63.025 1.5 1.5 0 0 1-1.288.721z" class="cls-2" data-name="Path 1245"/>
                <path id="Path_1246" d="M1488 562.5a41.547 41.547 0 0 1-41.5-41.5 1.5 1.5 0 0 1 3 0 38.525 38.525 0 0 0 52.264 35.967 1.5 1.5 0 0 1 1.072 2.8A41.335 41.335 0 0 1 1488 562.5z" class="cls-2" data-name="Path 1246"/>
            </g>
            <g id="Layer_4_copy_2" data-name="Layer 4 copy 2">
                <path id="Path_1247" d="M1513.97 561.5a34.058 34.058 0 0 1-11.519-2.194 1.461 1.461 0 0 1-.228-.1 1.388 1.388 0 0 1-.152-.044c-9.311-3.457-19.585-10.76-30.534-21.705-23.736-23.736-25.718-39.653-23.2-48.826a8.861 8.861 0 0 1 4.07-5.26l7.24-4.343a3.679 3.679 0 0 1 4.968 1.118l11.56 17.346a3.722 3.722 0 0 1-.8 4.955l-6.5 5.056a3.52 3.52 0 0 0-.937 4.5l.522.948c1.785 3.273 4 7.333 12.128 15.46s12.19 10.343 15.452 12.122l.946.522a3.519 3.519 0 0 0 4.5-.921l5.061-6.505a3.721 3.721 0 0 1 4.952-.808l17.354 11.574a3.677 3.677 0 0 1 1.123 4.96l-4.352 7.255a8.835 8.835 0 0 1-5.24 4.054 24.106 24.106 0 0 1-6.414.836zm-10.406-4.982c5.931 2.121 11.317 2.542 16.013 1.252a5.858 5.858 0 0 0 3.466-2.691l4.36-7.27a.681.681 0 0 0-.21-.92l-17.351-11.573a.7.7 0 0 0-.931.155l-5.049 6.49a6.522 6.522 0 0 1-8.333 1.711l-.928-.511c-3.428-1.87-7.7-4.2-16.134-12.634s-10.764-12.7-12.635-16.134l-.517-.939a6.528 6.528 0 0 1 1.728-8.33l6.485-5.045a.7.7 0 0 0 .147-.932l-11.557-17.343a.688.688 0 0 0-.926-.209l-7.256 4.353a5.876 5.876 0 0 0-2.709 3.486c-2.3 8.393-.286 23.181 22.431 45.9 10.615 10.611 20.5 17.672 29.389 20.989a2.907 2.907 0 0 1 .517.199zm25.125-7.938z" class="cls-2" data-name="Path 1247"/>
                <path id="Path_1248" d="M1522.2 543.246a1.5 1.5 0 0 1-1.281-2.28A38.507 38.507 0 0 0 1488 482.5a1.5 1.5 0 0 1 0-3 41.509 41.509 0 0 1 35.488 63.025 1.5 1.5 0 0 1-1.288.721z" class="cls-2" data-name="Path 1248"/>
                <path id="Path_1249" d="M1488 562.5a41.547 41.547 0 0 1-41.5-41.5 1.5 1.5 0 0 1 3 0 38.525 38.525 0 0 0 52.264 35.967 1.5 1.5 0 0 1 1.072 2.8A41.335 41.335 0 0 1 1488 562.5z" class="cls-2" data-name="Path 1249"/>
            </g>
        </g>
    </g>
</svg>
