<svg xmlns="http://www.w3.org/2000/svg" width="40" height="40" viewBox="0 0 40 40">
    <defs>
        <style>
            .cls-1{fill:none}.cls-2{fill:#05a3ed}
        </style>
    </defs>
    <g id="icon_tax_expert">
        <path id="Rectangle_275" d="M0 0h40v40H0z" class="cls-1" data-name="Rectangle 275"/>
        <g id="Group_784" data-name="Group 784" transform="translate(1.6 2.133)">
            <path id="Path_1182" d="M831.348 498.6a4.5 4.5 0 0 1 .749.065 4.282 4.282 0 0 1 3.391 3.254 5.29 5.29 0 0 1 .029 2.084c-.055.31-.09.624-.138.963h.82c-.059.3-.126.564-.16.834a.436.436 0 0 1-.323.37c-.213.09-.411.217-.623.31-.246.108-.282.358-.382.558-.289.58-.541 1.181-.85 1.749a3.045 3.045 0 0 1-.575.662c-.229.226-.478.43-.725.636a1.033 1.033 0 0 1-.678.247h-.998a.938.938 0 0 1-.628-.206 14.457 14.457 0 0 1-1.257-1.137 3.447 3.447 0 0 1-.472-.861c-.236-.487-.445-.988-.7-1.467-.066-.127-.238-.2-.37-.286s-.306-.158-.443-.26a.571.571 0 0 1-.189-.254c-.079-.227-.134-.462-.2-.7-.014-.052-.02-.108-.034-.193h.773c-.048-.367-.124-.716-.135-1.068a9.738 9.738 0 0 1 .027-1.791 4.089 4.089 0 0 1 1.771-2.77 3.946 3.946 0 0 1 2.313-.744m0-1.6a5.526 5.526 0 0 0-3.233 1.035 5.7 5.7 0 0 0-2.431 3.829 8.99 8.99 0 0 0-.056 1.786v.05a1.581 1.581 0 0 0-.254.242 1.6 1.6 0 0 0-.353 1.3l.007.047a2.6 2.6 0 0 0 .058.289l.041.156c.051.2.109.42.193.654a2.153 2.153 0 0 0 .746 1.009 3.455 3.455 0 0 0 .448.275l.049.026c.079.166.158.339.24.517.093.2.186.405.283.606.027.057.053.114.078.172a3.767 3.767 0 0 0 .659 1.078 12.82 12.82 0 0 0 1.184 1.096l.214.182a2.525 2.525 0 0 0 1.668.59h.972a2.647 2.647 0 0 0 1.728-.619l.062-.052c.247-.206.5-.42.76-.673l.075-.073a4 4 0 0 0 .783-.965c.211-.388.391-.772.564-1.145.1-.219.2-.439.313-.655l.006-.013c.062-.033.124-.068.189-.1a2.013 2.013 0 0 0 1.293-1.639c.015-.118.046-.263.082-.431.02-.094.041-.191.061-.292a1.6 1.6 0 0 0-.6-1.58 6.79 6.79 0 0 0-.123-2.123 5.877 5.877 0 0 0-4.686-4.485 6.072 6.072 0 0 0-1.017-.087z" class="cls-2" data-name="Path 1182" transform="translate(-813 -485.457)"/>
            <path id="Path_1183" d="M836.5 536.367h-3.2a.8.8 0 0 1-.776-.994l.433-1.733a.854.854 0 0 0 0-.412l-.374-1.5a.8.8 0 0 1 .418-.909l.474-.237a.8.8 0 0 1 .358-.084h2.133a.8.8 0 0 1 .358.084l.474.237a.8.8 0 0 1 .418.909l-.374 1.5a.854.854 0 0 0 0 .412l.433 1.733a.8.8 0 0 1-.776.994zm-2.175-1.6h1.151l-.185-.74a2.455 2.455 0 0 1 0-1.187l.185-.74h-1.151l.185.74a2.455 2.455 0 0 1 0 1.187z" class="cls-2" data-name="Path 1183" transform="translate(-816.5 -500.367)"/>
            <path id="Path_1184" d="M839.015 533.732q-11.715-.007-23.427 0a1.116 1.116 0 0 1-.774-.305 1 1 0 0 1-.311-.738c.006-.271.006-.543.006-.815 0-.461 0-.938.029-1.417a3.118 3.118 0 0 1 1.522-2.492 6.456 6.456 0 0 1 1.08-.521l.158-.064c.658-.27 1.32-.53 1.983-.79l.3-.117q.5-.2 1.01-.393l2.97-1.164a.9.9 0 0 1 .8.071.787.787 0 0 1 .381.666v2.783l2.178-1.021a.905.905 0 0 1 .763 0l2.178 1.021v-2.713a.788.788 0 0 1 .378-.664.9.9 0 0 1 .8-.076l.11.043c3.342 1.285 6.647 2.558 7.151 2.789a.95.95 0 0 1 .089.046 3.37 3.37 0 0 1 1.709 3.057v1.776a.977.977 0 0 1-.294.751 1.107 1.107 0 0 1-.789.287zm-23.429-1.6zm11.715 0h11.089v-1.2a2.134 2.134 0 0 0-.109-.767 1.89 1.89 0 0 0-.775-.926c-.572-.249-3.661-1.44-5.938-2.316v2.814a.791.791 0 0 1-.4.681.906.906 0 0 1-.831.035l-3.032-1.421-3.032 1.421a.91.91 0 0 1-.831-.035.791.791 0 0 1-.4-.681v-2.873l-1.8.7-1 .389-.3.117c-.654.256-1.308.513-1.958.779l-.166.067a4.945 4.945 0 0 0-.791.372 1.569 1.569 0 0 0-.783 1.264c-.027.433-.026.866-.026 1.324v.258q5.539-.005 11.082-.005z" class="cls-2" data-name="Path 1184" transform="translate(-808.9 -497.732)"/>
            <path id="Path_1185" d="M806.667 531.333a2.667 2.667 0 1 1 2.667-2.667 2.67 2.67 0 0 1-2.667 2.667zm0-3.733a1.067 1.067 0 1 0 1.067 1.067 1.068 1.068 0 0 0-1.067-1.067z" class="cls-2" data-name="Path 1185" transform="translate(-804 -498.267)"/>
            <path id="Path_1186" d="M806.667 500.333a2.667 2.667 0 1 1 2.667-2.667 2.67 2.67 0 0 1-2.667 2.667zm0-3.733a1.067 1.067 0 1 0 1.067 1.067 1.068 1.068 0 0 0-1.067-1.067z" class="cls-2" data-name="Path 1186" transform="translate(-804 -484.872)"/>
            <path id="Path_1187" d="M834.667 482.333a2.667 2.667 0 1 1 2.667-2.667 2.67 2.67 0 0 1-2.667 2.667zm0-3.733a1.067 1.067 0 1 0 1.067 1.067 1.068 1.068 0 0 0-1.067-1.067z" class="cls-2" data-name="Path 1187" transform="translate(-816.267 -477)"/>
            <path id="Path_1188" d="M862.667 531.333a2.667 2.667 0 1 1 2.667-2.667 2.67 2.67 0 0 1-2.667 2.667zm0-3.733a1.067 1.067 0 1 0 1.067 1.067 1.068 1.068 0 0 0-1.067-1.067z" class="cls-2" data-name="Path 1188" transform="translate(-828.533 -498.267)"/>
            <path id="Path_1189" d="M862.667 500.333a2.667 2.667 0 1 1 2.667-2.667 2.67 2.67 0 0 1-2.667 2.667zm0-3.733a1.067 1.067 0 1 0 1.067 1.067 1.068 1.068 0 0 0-1.067-1.067z" class="cls-2" data-name="Path 1189" transform="translate(-828.533 -484.872)"/>
            <g id="Group_783" data-name="Group 783" transform="translate(2.133 3.373)">
                <path id="Path_1190" d="M808.533 513.983a.534.534 0 0 0-.533.533v.552a.533.533 0 0 0 1.067 0v-.552a.534.534 0 0 0-.534-.533z" class="cls-2" data-name="Path 1190" transform="translate(-808 -497.632)"/>
                <path id="Path_1191" d="M808.533 508.811a.533.533 0 0 0-.533.533v.551a.533.533 0 1 0 1.067 0v-.551a.533.533 0 0 0-.534-.533z" class="cls-2" data-name="Path 1191" transform="translate(-808 -495.218)"/>
                <path id="Path_1192" d="M808.533 503.638a.534.534 0 0 0-.533.533v.552a.533.533 0 0 0 1.067 0v-.552a.534.534 0 0 0-.534-.533z" class="cls-2" data-name="Path 1192" transform="translate(-808 -492.804)"/>
                <path id="Path_1193" d="M808.533 519.155a.534.534 0 0 0-.533.533v.552a.533.533 0 0 0 1.067 0v-.552a.534.534 0 0 0-.534-.533z" class="cls-2" data-name="Path 1193" transform="translate(-808 -500.045)"/>
                <path id="Path_1194" d="M808.533 524.328a.533.533 0 0 0-.533.533v.551a.533.533 0 0 0 1.067 0v-.551a.533.533 0 0 0-.534-.533z" class="cls-2" data-name="Path 1194" transform="translate(-808 -502.459)"/>
                <path id="Path_1195" d="M812.15 497.5a.53.53 0 0 0 .288-.085l.426-.274a.533.533 0 0 0-.577-.9l-.426.274a.533.533 0 0 0 .289.982z" class="cls-2" data-name="Path 1195" transform="translate(-809.687 -489.315)"/>
                <path id="Path_1196" d="M820.137 492.368a.532.532 0 0 0 .288-.085l.426-.274a.533.533 0 1 0-.576-.9l-.426.274a.534.534 0 0 0 .289.982z" class="cls-2" data-name="Path 1196" transform="translate(-813.079 -486.919)"/>
                <path id="Path_1197" d="M832.833 484.307a.533.533 0 1 0-.577-.9l-.426.274a.533.533 0 1 0 .576.9z" class="cls-2" data-name="Path 1197" transform="translate(-818.323 -483.324)"/>
                <path id="Path_1198" d="M824.132 489.8a.53.53 0 0 0 .288-.085l.426-.274a.534.534 0 1 0-.577-.9l-.426.274a.533.533 0 0 0 .289.982z" class="cls-2" data-name="Path 1198" transform="translate(-814.827 -485.721)"/>
                <path id="Path_1199" d="M816.144 494.935a.53.53 0 0 0 .288-.085l.426-.274a.533.533 0 1 0-.577-.9l-.426.274a.533.533 0 0 0 .289.981z" class="cls-2" data-name="Path 1199" transform="translate(-811.551 -488.117)"/>
                <path id="Path_1200" d="M828.125 487.233a.534.534 0 0 0 .288-.085l.426-.274a.533.533 0 0 0-.577-.9l-.426.274a.534.534 0 0 0 .289.982z" class="cls-2" data-name="Path 1200" transform="translate(-816.575 -484.523)"/>
                <path id="Path_1201" d="M840.864 483.683l-.426-.274a.534.534 0 1 0-.577.9l.426.274a.533.533 0 1 0 .577-.9z" class="cls-2" data-name="Path 1201" transform="translate(-821.837 -483.324)"/>
                <path id="Path_1202" d="M843.855 486.873l.426.274a.533.533 0 1 0 .577-.9l-.426-.274a.533.533 0 1 0-.577.9z" class="cls-2" data-name="Path 1202" transform="translate(-823.586 -484.522)"/>
                <path id="Path_1203" d="M847.849 489.442l.426.274a.533.533 0 1 0 .577-.9l-.426-.274a.533.533 0 0 0-.577.9z" class="cls-2" data-name="Path 1203" transform="translate(-825.334 -485.721)"/>
                <path id="Path_1204" d="M860.833 496.521l-.426-.274a.533.533 0 1 0-.577.9l.426.274a.533.533 0 0 0 .577-.9z" class="cls-2" data-name="Path 1204" transform="translate(-830.473 -489.315)"/>
                <path id="Path_1205" d="M856.839 493.953l-.426-.274a.534.534 0 0 0-.577.9l.426.274a.533.533 0 0 0 .577-.9z" class="cls-2" data-name="Path 1205" transform="translate(-828.609 -488.117)"/>
                <path id="Path_1206" d="M851.843 492.009l.426.274a.534.534 0 1 0 .577-.9l-.426-.274a.533.533 0 1 0-.577.9z" class="cls-2" data-name="Path 1206" transform="translate(-827.082 -486.919)"/>
                <path id="Path_1207" d="M864.533 513.982a.533.533 0 0 0-.533.533v.552a.533.533 0 0 0 1.067 0v-.552a.533.533 0 0 0-.534-.533z" class="cls-2" data-name="Path 1207" transform="translate(-832.533 -497.631)"/>
                <path id="Path_1208" d="M864.533 519.155a.534.534 0 0 0-.533.533v.551a.533.533 0 0 0 1.067 0v-.551a.534.534 0 0 0-.534-.533z" class="cls-2" data-name="Path 1208" transform="translate(-832.533 -500.045)"/>
                <path id="Path_1209" d="M864.533 524.327a.533.533 0 0 0-.533.533v.552a.533.533 0 0 0 1.067 0v-.552a.533.533 0 0 0-.534-.533z" class="cls-2" data-name="Path 1209" transform="translate(-832.533 -502.459)"/>
                <path id="Path_1210" d="M864.533 503.638a.533.533 0 0 0-.533.533v.551a.533.533 0 0 0 1.067 0v-.551a.533.533 0 0 0-.534-.533z" class="cls-2" data-name="Path 1210" transform="translate(-832.533 -492.804)"/>
                <path id="Path_1211" d="M864.533 508.81a.533.533 0 0 0-.533.533v.552a.533.533 0 1 0 1.067 0v-.552a.533.533 0 0 0-.534-.533z" class="cls-2" data-name="Path 1211" transform="translate(-832.533 -495.218)"/>
                <path id="Path_1212" d="M860.688 527.564l-.441-.269a.533.533 0 1 0-.555.911l.441.269a.533.533 0 1 0 .555-.911z" class="cls-2" data-name="Path 1212" transform="translate(-830.403 -503.807)"/>
                <path id="Path_1213" d="M812.433 527.295l-.441.269a.533.533 0 0 0 .555.911l.441-.269a.533.533 0 1 0-.555-.911z" class="cls-2" data-name="Path 1213" transform="translate(-809.743 -503.807)"/>
                <path id="Path_1214" d="M856.551 525.041l-.441-.269a.533.533 0 1 0-.555.911l.441.269a.533.533 0 0 0 .555-.911z" class="cls-2" data-name="Path 1214" transform="translate(-828.473 -502.63)"/>
                <path id="Path_1215" d="M824.844 519.727l-.444.273a.533.533 0 0 0 .555.911l.441-.269a.533.533 0 1 0-.555-.911z" class="cls-2" data-name="Path 1215" transform="translate(-815.067 -500.276)"/>
                <path id="Path_1216" d="M852.414 522.519l-.441-.269a.533.533 0 1 0-.555.911l.441.269a.533.533 0 1 0 .555-.911z" class="cls-2" data-name="Path 1216" transform="translate(-826.891 -501.453)"/>
                <path id="Path_1217" d="M820.707 522.249l-.441.269a.533.533 0 0 0 .555.911l.441-.269a.533.533 0 1 0-.555-.911z" class="cls-2" data-name="Path 1217" transform="translate(-813.256 -501.453)"/>
                <path id="Path_1218" d="M816.57 524.772l-.441.269a.533.533 0 0 0 .555.911l.441-.269a.533.533 0 1 0-.555-.911z" class="cls-2" data-name="Path 1218" transform="translate(-811.674 -502.63)"/>
                <path id="Path_1219" d="M848.278 520l-.442-.269a.533.533 0 0 0-.556.91l.442.269a.533.533 0 0 0 .556-.91z" class="cls-2" data-name="Path 1219" transform="translate(-825.08 -500.276)"/>
                <path id="Path_1220" d="M823.053 506.412a.534.534 0 0 0-.254-.71l-.482-.228a.533.533 0 1 0-.457.964l.482.228a.527.527 0 0 0 .228.052.534.534 0 0 0 .483-.306z" class="cls-2" data-name="Path 1220" transform="translate(-813.932 -493.636)"/>
                <path id="Path_1221" d="M818.281 503.56l-.482-.228a.534.534 0 0 0-.457.964l.482.228a.533.533 0 0 0 .457-.964z" class="cls-2" data-name="Path 1221" transform="translate(-811.955 -492.637)"/>
                <path id="Path_1222" d="M813.762 501.42l-.482-.228a.533.533 0 1 0-.456.964l.482.228a.524.524 0 0 0 .228.051.533.533 0 0 0 .228-1.015z" class="cls-2" data-name="Path 1222" transform="translate(-810.109 -491.639)"/>
                <path id="Path_1223" d="M851.037 505.726a.534.534 0 0 0-.71-.253l-.482.228a.533.533 0 0 0 .229 1.015.527.527 0 0 0 .228-.052l.482-.228a.534.534 0 0 0 .253-.71z" class="cls-2" data-name="Path 1223" transform="translate(-826.179 -493.636)"/>
                <path id="Path_1224" d="M855.3 504.3a.534.534 0 0 0-.457-.964l-.482.228a.533.533 0 0 0 .457.964z" class="cls-2" data-name="Path 1224" transform="translate(-828.156 -492.637)"/>
                <path id="Path_1225" d="M859.339 502.384l.482-.228a.533.533 0 0 0-.456-.964l-.482.228a.533.533 0 0 0 .228 1.015.524.524 0 0 0 .228-.051z" class="cls-2" data-name="Path 1225" transform="translate(-830.003 -491.639)"/>
            </g>
        </g>
    </g>
</svg>
