<svg xmlns="http://www.w3.org/2000/svg" width="92" height="92" viewBox="0 0 92 92">
    <defs>
        <style>
            .cls-1{fill:none}.cls-2{fill:#05a3ed}
        </style>
    </defs>
    <g id="icon_support" transform="translate(-1603.009 -101.224)">
        <path id="Rectangle_280" d="M0 0h92v92H0z" class="cls-1" data-name="Rectangle 280" transform="translate(1603.01 101.224)"/>
        <g id="Group_789" data-name="Group 789" transform="translate(309.51 -364.276)">
            <path id="Path_1240" d="M1348.373 557.5a30.333 30.333 0 0 1-21.133-8.443 1.5 1.5 0 1 1 2.035-2.2 27.429 27.429 0 0 0 19.1 7.646c15.617 0 28.093-15.331 29.947-29.65a1.5 1.5 0 0 1 2.975.385c-2.019 15.579-15.73 32.262-32.924 32.262z" class="cls-2" data-name="Path 1240"/>
            <path id="Path_1241" d="M1317.848 529.24a1.5 1.5 0 0 1-1.35-.843c-2.5-5.126-2.858-14.7.865-21.845 2.317-4.446 5.86-7.163 10.247-7.858 4.032-.637 6.25-4.288 8.4-7.82 1.6-2.64 3.117-5.129 5.426-6.391a4 4 0 0 1 3.191-.406c1.808.566 2.664 2.277 3.57 4.089 1.937 3.869 4.589 9.166 15.846 9.555.958.032 1.856.057 2.7.081h.158c9.4.261 13.694.381 14.616 10.965a1.5 1.5 0 0 1-2.988.26c-.69-7.92-2.159-7.961-11.71-8.226h-.16q-1.266-.036-2.713-.082c-13.04-.451-16.412-7.185-18.426-11.209-.641-1.281-1.194-2.385-1.784-2.57-.085-.027-.338-.107-.856.175-1.6.876-2.912 3.031-4.3 5.313-2.268 3.734-5.089 8.376-10.493 9.229-3.41.54-6.2 2.712-8.056 6.281-3.139 6.027-2.962 14.765-.828 19.145a1.5 1.5 0 0 1-1.347 2.157z" class="cls-2" data-name="Path 1241"/>
            <path id="Path_1242" d="M1337.518 543.638h-.014c-9.977-.094-19.366-1.741-26.438-4.639-11.212-4.6-13.566-10.938-13.566-15.45 0-8.19 1.185-23.9 9.121-37.058 8-13.265 20.281-19.991 36.515-19.991a1.5 1.5 0 0 1 0 3c-15.11 0-26.531 6.238-33.947 18.54-7.56 12.541-8.689 27.63-8.689 35.509 0 6.511 6.364 10.486 11.7 12.674 6.728 2.757 15.723 4.325 25.327 4.415a1.5 1.5 0 0 1-.013 3z" class="cls-2" data-name="Path 1242"/>
            <path id="Path_1243" d="M1349 547h-8a4 4 0 0 1-4-4v-2a4 4 0 0 1 4-4h8a4 4 0 0 1 4 4v2a4 4 0 0 1-4 4zm-8-7a1.013 1.013 0 0 0-1 1v2a1.013 1.013 0 0 0 1 1h8a1.013 1.013 0 0 0 1-1v-2a1.013 1.013 0 0 0-1-1z" class="cls-2" data-name="Path 1243"/>
        </g>
    </g>
</svg>
