<svg xmlns="http://www.w3.org/2000/svg" id="logo_footer" width="416.4" height="107.5" viewBox="0 0 416.4 107.5">
    <defs>
        <style>
            .cls-1,.cls-2{fill:#fff}.cls-2{fill-rule:evenodd}
        </style>
    </defs>
    <g id="Group_775" data-name="Group 775">
        <path id="Path_1157" d="M128.7 70.1a10.551 10.551 0 0 1-1.2 5 14.011 14.011 0 0 1-3 3.8 22.182 22.182 0 0 1-4.2 2.5 15.633 15.633 0 0 1-4.7.9 12.478 12.478 0 0 1-3.5-.4 17.934 17.934 0 0 1-3-.9c-.9-.4-1.7-.7-2.5-1a18.647 18.647 0 0 0-2-1l-.3-8.9c.4 1 .8 2.1 1.3 3.3a10.623 10.623 0 0 0 2.1 3.1 18.312 18.312 0 0 0 3.1 2.4 10.819 10.819 0 0 0 4.2.9 8.7 8.7 0 0 0 3.9-.8 6.339 6.339 0 0 0 2.5-2 8.755 8.755 0 0 0 1.2-2.6c.1-.9.4-1.8.4-2.5a7.244 7.244 0 0 0-.8-3.5 7.91 7.91 0 0 0-2.1-2.4c-.9-.7-2-1.2-3.1-2a28.932 28.932 0 0 1-3.9-2 22.342 22.342 0 0 1-6.6-4.6 8.171 8.171 0 0 1-2.1-6 8.285 8.285 0 0 1 1.2-4.6 11.5 11.5 0 0 1 2.9-3.3 17.942 17.942 0 0 1 3.9-2 10.791 10.791 0 0 1 4.3-.7 21.7 21.7 0 0 1 4.1.4 12.658 12.658 0 0 1 4.3 1.8l.4 7.7c-.3-.7-.5-1.4-1-2.4a9.171 9.171 0 0 0-2-2.5 12.4 12.4 0 0 0-2.9-2 9.465 9.465 0 0 0-3.7-.8 6.765 6.765 0 0 0-3.1.7 4.09 4.09 0 0 0-2 1.6 6.249 6.249 0 0 0-1 2 5.085 5.085 0 0 0-.4 2 6.566 6.566 0 0 0 .4 2.5 18.606 18.606 0 0 0 1.4 2 13.5 13.5 0 0 0 2.5 1.7c1 .5 2.2 1.2 3.7 2 1.4.7 2.8 1.3 4.2 2a12.754 12.754 0 0 1 3.5 2.4 9.046 9.046 0 0 1 2.5 3.3 10.433 10.433 0 0 1 1.1 4.9z" class="cls-1" data-name="Path 1157"/>
        <path id="Path_1158" d="M158.1 67.7a18.211 18.211 0 0 1-.9 5 11.7 11.7 0 0 1-2.6 4.6 16.484 16.484 0 0 1-4.3 3.5 11.968 11.968 0 0 1-5.9 1.3 12.478 12.478 0 0 1-3.5-.4 19.044 19.044 0 0 1-2.8-1v12.1c0 .7.1 1.2.4 1.4a5.025 5.025 0 0 0 1.2.8h-8.1c.4-.3.9-.4 1.2-.8a2.116 2.116 0 0 0 .4-1.4v-35a2.034 2.034 0 0 0-.7-1.8c-.4-.3-.9-.4-1.3-.7l7.1-1.6v3.7a6.789 6.789 0 0 1 1.2-1.2 11.7 11.7 0 0 1 2-1.2 7.511 7.511 0 0 1 2.4-.9 8.627 8.627 0 0 1 2.8-.4 11.321 11.321 0 0 1 3.9.8 8.982 8.982 0 0 1 3.7 2.6 14.536 14.536 0 0 1 2.8 4.3 19.349 19.349 0 0 1 1 6.3zm-5.7.4a16.839 16.839 0 0 0-.8-5.5 9.278 9.278 0 0 0-2-3.4 8.323 8.323 0 0 0-2.6-1.7 5.914 5.914 0 0 0-2.5-.4 8.25 8.25 0 0 0-3.5.9 5.179 5.179 0 0 0-2.5 2v17.2a10.157 10.157 0 0 0 2.1 2 6.727 6.727 0 0 0 3.3.9 7.5 7.5 0 0 0 6.3-3.1 16.324 16.324 0 0 0 2.2-8.9z" class="cls-1" data-name="Path 1158"/>
        <path id="Path_1159" d="M178.7 82.3a3.126 3.126 0 0 1-1.4-1.4 5.947 5.947 0 0 1-.5-2.9 11.432 11.432 0 0 1-1.6 1.4 6.249 6.249 0 0 1-2.1 1.3 11.663 11.663 0 0 1-2.6 1 14.455 14.455 0 0 1-2.9.4 6.71 6.71 0 0 1-3.3-.8 6.09 6.09 0 0 1-2.2-2 8.982 8.982 0 0 1-1.2-2.4 6.335 6.335 0 0 1-.4-2.1 8.525 8.525 0 0 1 .8-3.5 7.094 7.094 0 0 1 3.1-3.1 15.841 15.841 0 0 1 2.9-1.2c1.2-.4 2.4-.8 3.5-1.2a20.9 20.9 0 0 0 3.3-1.2 7.161 7.161 0 0 0 2.2-1.2 2.268 2.268 0 0 0 .1-.4c0-.3.1-.5.1-.8V61a7.469 7.469 0 0 0-.3-2 7 7 0 0 0-.9-1.7 5.154 5.154 0 0 0-1.6-1.2 4.507 4.507 0 0 0-2.4-.4 8.431 8.431 0 0 0-3.3.7 6.9 6.9 0 0 0-2.4 1.8 11.669 11.669 0 0 0-1.7 2.6c-.4 1-.9 2-1.2 3l-.1-7.3a15.054 15.054 0 0 1 1.7-1 5.284 5.284 0 0 1 2-.9c.7-.3 1.6-.4 2.5-.7a10.215 10.215 0 0 1 3.1-.3 15.868 15.868 0 0 1 2.9.3 9.429 9.429 0 0 1 3 1.2 5.818 5.818 0 0 1 2.4 2.5 7.47 7.47 0 0 1 1 4.2v15.7a4.5 4.5 0 0 0 .3 1.8c.1.4.7.8 1.6.9zm-2.1-16c-.9.4-2 .9-2.8 1.2-.9.3-2.1.7-3.5 1.2a11.873 11.873 0 0 0-3.5 2 5.367 5.367 0 0 0-.2 7 4.229 4.229 0 0 0 3.3 1.2 8.868 8.868 0 0 0 3.8-.9 10.277 10.277 0 0 0 2.9-2.1v-9.6z" class="cls-1" data-name="Path 1159"/>
        <path id="Path_1160" d="M202.4 59.7a5.706 5.706 0 0 0-1.4-1.3 3.14 3.14 0 0 0-2-.4 5.142 5.142 0 0 0-3 1 8.359 8.359 0 0 0-2.1 2.1v18.4c0 .7.1 1.2.4 1.4a12.485 12.485 0 0 0 1.2.8h-8.1a12.487 12.487 0 0 0 1.2-.8 1.955 1.955 0 0 0 .4-1.4v-22a2.316 2.316 0 0 0-.7-1.8c-.4-.3-.9-.4-1.4-.7l7.3-1.4v5.1a17.674 17.674 0 0 1 1.2-1.7 13.624 13.624 0 0 1 1.7-1.7c.7-.4 1.2-1 1.8-1.3a2.68 2.68 0 0 1 1.7-.4 3.474 3.474 0 0 1 1.3.1c.3.1.4.3.9.4l-.4 5.6z" class="cls-1" data-name="Path 1160"/>
        <path id="Path_1161" d="M209.8 65.9v1.7a31.481 31.481 0 0 0 .5 4.3 10.565 10.565 0 0 0 1.8 3.5 11.629 11.629 0 0 0 2.9 2.5 10.819 10.819 0 0 0 4.2.9 15.666 15.666 0 0 0 3-.5 18.276 18.276 0 0 0 2.8-1.4 7.032 7.032 0 0 0 2.2-2 4.046 4.046 0 0 0 1.3-2.1 8.645 8.645 0 0 1-.9 3.5 8.387 8.387 0 0 1-2.4 3 10.216 10.216 0 0 1-3.5 2.1 12.169 12.169 0 0 1-4.3.8 12.776 12.776 0 0 1-5.6-1.2 15.417 15.417 0 0 1-4.3-3.3 17.093 17.093 0 0 1-2.8-4.5 18.246 18.246 0 0 1-.9-5.1 18.211 18.211 0 0 1 .9-5 11.7 11.7 0 0 1 2.6-4.6 16.484 16.484 0 0 1 4.3-3.5 12.5 12.5 0 0 1 5.9-1.3 12.722 12.722 0 0 1 3.8.7 9.633 9.633 0 0 1 3.5 2.1 10.67 10.67 0 0 1 2.6 3.8 15.563 15.563 0 0 1 1 5.6zm13.6-2.3a15.406 15.406 0 0 0-.5-3.5 8.568 8.568 0 0 0-1.4-2.5 2.969 2.969 0 0 0-2-1.3 20.024 20.024 0 0 0-2.4-.4 6.438 6.438 0 0 0-2.8.7 5.2 5.2 0 0 0-2.1 1.8 15.912 15.912 0 0 0-1.4 2.6 15.294 15.294 0 0 0-.7 2.9l13.3-.3z" class="cls-1" data-name="Path 1161"/>
        <path id="Path_1162" d="M268.3 70.1a10.55 10.55 0 0 1-1.2 5 14.011 14.011 0 0 1-3 3.8 22.182 22.182 0 0 1-4.2 2.5 15.633 15.633 0 0 1-4.7.9 12.478 12.478 0 0 1-3.5-.4 17.934 17.934 0 0 1-3-.9c-.9-.4-1.7-.7-2.5-1a18.647 18.647 0 0 0-2-1l-.3-8.9c.4 1 .8 2.1 1.3 3.3a10.623 10.623 0 0 0 2.1 3.1 18.311 18.311 0 0 0 3.1 2.4 8.135 8.135 0 0 0 4.2.9 8.7 8.7 0 0 0 3.9-.8 6.339 6.339 0 0 0 2.5-2 8.755 8.755 0 0 0 1.2-2.6 8.082 8.082 0 0 0 .4-2.5 7.244 7.244 0 0 0-.8-3.5 7.91 7.91 0 0 0-2.1-2.4c-.9-.7-2-1.2-3.1-2a28.931 28.931 0 0 1-3.9-2 22.342 22.342 0 0 1-6.6-4.6 8.171 8.171 0 0 1-2.1-6 8.285 8.285 0 0 1 1.2-4.6 11.5 11.5 0 0 1 2.9-3.3 17.942 17.942 0 0 1 3.9-2 16.1 16.1 0 0 1 4.3-.7 21.7 21.7 0 0 1 4.1.4 12.658 12.658 0 0 1 4.3 1.8l.4 7.7c-.3-.7-.5-1.4-1-2.4a9.171 9.171 0 0 0-2-2.5 12.4 12.4 0 0 0-2.9-2 8.744 8.744 0 0 0-3.7-.8 6.765 6.765 0 0 0-3.1.7 4.09 4.09 0 0 0-2 1.6 6.249 6.249 0 0 0-1 2 5.085 5.085 0 0 0-.4 2 6.567 6.567 0 0 0 .4 2.5 18.606 18.606 0 0 0 1.4 2 13.5 13.5 0 0 0 2.5 1.7c1.1.5 2.2 1.2 3.7 2 1.4.7 2.8 1.3 4.2 2a12.754 12.754 0 0 1 3.5 2.4 9.046 9.046 0 0 1 2.5 3.3 9.355 9.355 0 0 1 1.1 4.9z" class="cls-1" data-name="Path 1162"/>
        <path id="Path_1163" d="M287 78.2a1.922 1.922 0 0 1-.4 1.2c-.4.4-.8.9-1.2 1.3a5.364 5.364 0 0 1-2 1 5.748 5.748 0 0 1-2.4.4 8.525 8.525 0 0 1-5.9-2.1c-1.6-1.4-2.4-3.5-2.4-6.4V56.8h-2.6l7.6-8v5.4h8.1v2.5h-8.3v16.7a13.523 13.523 0 0 0 .5 3.3 10.13 10.13 0 0 0 1.4 2 4.168 4.168 0 0 0 1.8.8 11.045 11.045 0 0 0 1.6.3 5.313 5.313 0 0 0 1.4-.1 10.374 10.374 0 0 0 1-.4c.3-.1.5-.4.7-.4.7-.4.9-.6 1.1-.7z" class="cls-1" data-name="Path 1163"/>
        <path id="Path_1164" d="M293.2 65.9v1.7a31.479 31.479 0 0 0 .5 4.3 10.565 10.565 0 0 0 1.8 3.5 11.628 11.628 0 0 0 2.9 2.5 8.135 8.135 0 0 0 4.2.9 15.666 15.666 0 0 0 3-.5 18.275 18.275 0 0 0 2.8-1.4 7.033 7.033 0 0 0 2.2-2 4.046 4.046 0 0 0 1.3-2.1 8.645 8.645 0 0 1-.9 3.5 8.387 8.387 0 0 1-2.4 3 10.216 10.216 0 0 1-3.5 2.1 12.169 12.169 0 0 1-4.3.8 12.776 12.776 0 0 1-5.6-1.2 15.417 15.417 0 0 1-4.3-3.3 17.092 17.092 0 0 1-2.8-4.5 18.246 18.246 0 0 1-.9-5.1 18.211 18.211 0 0 1 .9-5 11.7 11.7 0 0 1 2.6-4.6A16.485 16.485 0 0 1 295 55a12.5 12.5 0 0 1 5.9-1.3 12.722 12.722 0 0 1 3.8.7 9.633 9.633 0 0 1 3.5 2.1 10.67 10.67 0 0 1 2.6 3.8 15.563 15.563 0 0 1 1 5.6zm13.7-2.3a15.405 15.405 0 0 0-.5-3.5 8.568 8.568 0 0 0-1.4-2.5 2.969 2.969 0 0 0-2-1.3 5.073 5.073 0 0 0-2.4-.4 6.438 6.438 0 0 0-2.8.7 5.2 5.2 0 0 0-2.1 1.8 15.912 15.912 0 0 0-1.4 2.6 15.3 15.3 0 0 0-.7 2.9l13.3-.3z" class="cls-1" data-name="Path 1164"/>
        <path id="Path_1165" d="M336.2 82.3c-.4-.3-.7-.4-.9-.7a5.718 5.718 0 0 1-.7-.8 1.746 1.746 0 0 1-.4-1.2 8.116 8.116 0 0 1-.1-1.7 12.67 12.67 0 0 1-3.5 2.8 9 9 0 0 1-5.1 1.3 10.6 10.6 0 0 1-2.9-.4 8.209 8.209 0 0 1-2.9-1.8 8.362 8.362 0 0 1-2.2-3.4 16.6 16.6 0 0 1-.9-5.5V57.5a2.376 2.376 0 0 0-.3-1.2c-.1-.3-.3-.4-.4-.7-.3-.1-.4-.3-.7-.4a2.118 2.118 0 0 1-.7-.3l7.2-1.4V71a8.245 8.245 0 0 0 1.8 5.8 5.654 5.654 0 0 0 4.3 2 6.65 6.65 0 0 0 3.5-.9 22.65 22.65 0 0 0 2.8-2.1V57.5a2.316 2.316 0 0 0-.7-1.8c-.4-.3-.9-.4-1.3-.7l7.1-1.4v23.2a4.556 4.556 0 0 0 .4 2.2 3.27 3.27 0 0 0 2 1.2z" class="cls-1" data-name="Path 1165"/>
        <path id="Path_1166" d="M349.9 65.9v1.7a31.479 31.479 0 0 0 .5 4.3 10.565 10.565 0 0 0 1.8 3.5 11.628 11.628 0 0 0 2.9 2.5 7.7 7.7 0 0 0 4.2.9 15.666 15.666 0 0 0 3-.5 18.275 18.275 0 0 0 2.8-1.4 8.331 8.331 0 0 0 2.2-2 4.046 4.046 0 0 0 1.3-2.1 8.645 8.645 0 0 1-.9 3.5 7.618 7.618 0 0 1-2.4 3 10.216 10.216 0 0 1-3.5 2.1 12.169 12.169 0 0 1-4.3.8 12.776 12.776 0 0 1-5.6-1.2 15.417 15.417 0 0 1-4.3-3.3 17.092 17.092 0 0 1-2.8-4.5 18.246 18.246 0 0 1-.9-5.1 18.211 18.211 0 0 1 .9-5 11.7 11.7 0 0 1 2.6-4.6 16.485 16.485 0 0 1 4.3-3.5 12.5 12.5 0 0 1 5.9-1.3 12.722 12.722 0 0 1 3.8.7 9.633 9.633 0 0 1 3.5 2.1 10.67 10.67 0 0 1 2.6 3.8 15.563 15.563 0 0 1 1 5.6zm13.6-2.3a15.405 15.405 0 0 0-.5-3.5 8.568 8.568 0 0 0-1.4-2.5 2.969 2.969 0 0 0-2-1.3 5.073 5.073 0 0 0-2.4-.4 6.438 6.438 0 0 0-2.8.7 5.2 5.2 0 0 0-2.1 1.8 15.912 15.912 0 0 0-1.4 2.6 15.3 15.3 0 0 0-.7 2.9l13.3-.3z" class="cls-1" data-name="Path 1166"/>
        <path id="Path_1167" d="M387.5 59.7a5.706 5.706 0 0 0-1.4-1.3 3.14 3.14 0 0 0-2-.4 5.142 5.142 0 0 0-3 1 10.4 10.4 0 0 0-2.1 2.1v18.4c0 .7.1 1.2.4 1.4a12.486 12.486 0 0 0 1.2.8h-8.1a12.49 12.49 0 0 0 1.2-.8 1.955 1.955 0 0 0 .4-1.4v-22a2.316 2.316 0 0 0-.7-1.8c-.4-.3-.9-.4-1.4-.7l7.3-1.4v5.1a17.674 17.674 0 0 1 1.2-1.7 13.623 13.623 0 0 1 1.7-1.7c.7-.4 1.2-1 1.8-1.3a2.68 2.68 0 0 1 1.7-.4 3.474 3.474 0 0 1 1.3.1 1.871 1.871 0 0 0 .9.4l-.4 5.6z" class="cls-1" data-name="Path 1167"/>
        <path id="Path_1168" d="M407.6 81.6a6.225 6.225 0 0 0 1.2-.8 1.955 1.955 0 0 0 .4-1.4V64a10.68 10.68 0 0 0-.3-2.5 3.667 3.667 0 0 0-.9-2.1 4.6 4.6 0 0 0-2-1.6 6.886 6.886 0 0 0-6.6.3 7.77 7.77 0 0 0-2.5 2v19.2c0 .7.1 1.2.4 1.4a6.224 6.224 0 0 0 1.2.8h-8.1c.4-.3.8-.5 1.2-.8a1.955 1.955 0 0 0 .4-1.4V57.5a3.522 3.522 0 0 0-.5-1.8 8.265 8.265 0 0 0-1.3-.7l7.1-1.3v4.2a15.379 15.379 0 0 1 1.3-1.2 11.559 11.559 0 0 1 2-1.3c.8-.4 1.6-.8 2.5-1.2a6.578 6.578 0 0 1 2.8-.4 18.814 18.814 0 0 1 3.3.5 9.7 9.7 0 0 1 2.8 1.6 10.562 10.562 0 0 1 2 2.6 9.024 9.024 0 0 1 .8 3.5v17.6c0 .7.1 1.2.4 1.4a12.486 12.486 0 0 0 1.2.8c-.5-.2-8.8-.2-8.8-.2z" class="cls-1" data-name="Path 1168"/>
    </g>
    <g id="XMLID_1_">
        <g id="XMLID_566_">
            <g id="Group_776" data-name="Group 776">
                <path id="XMLID_567_" d="M11.2 56.4C11.3 39.4 0 0 0 0s51 47 56 86.8c-14.6-1.2-51.6 15.5-51.6 15.5a195.713 195.713 0 0 0 6.8-45.9z" class="cls-2"/>
            </g>
        </g>
        <path id="Path_1169" d="M29.3 5.1s5.5 19.2 8.8 36.5C47.8 56 56.3 72.4 58.1 88c-5.2-.4-13 1.3-20.9 3.9-1.8 9.6-3.5 15.6-3.5 15.6S68.3 90.9 83 92.1c-4.9-40-53.7-87-53.7-87z" class="cls-2" data-name="Path 1169"/>
    </g>
</svg>
