<svg xmlns="http://www.w3.org/2000/svg" width="170" height="44" viewBox="0 0 170 44">
    <defs>
        <style>
            .cls-1,.cls-2{fill:#fff}.cls-2{fill-rule:evenodd}
        </style>
    </defs>
    <g id="logo_header">
        <g id="Group_752" data-name="Group 752" transform="translate(43.28 16.853)">
            <path id="Path_1129" d="M89.42 42.993a4.214 4.214 0 0 1-.48 2.027 5.821 5.821 0 0 1-1.227 1.547 6.874 6.874 0 0 1-1.707 1.013 6.127 6.127 0 0 1-1.92.373 5.948 5.948 0 0 1-1.44-.16 6.675 6.675 0 0 1-1.227-.373c-.373-.16-.693-.267-1.013-.427-.267-.16-.533-.267-.8-.427L79.5 42.94c.16.427.32.853.533 1.333a4.876 4.876 0 0 0 .853 1.28 5.741 5.741 0 0 0 1.28.96 4.23 4.23 0 0 0 1.707.373 3.562 3.562 0 0 0 1.6-.32 2.605 2.605 0 0 0 1.013-.8 2.749 2.749 0 0 0 .48-1.067 9.671 9.671 0 0 0 .16-1.013 2.879 2.879 0 0 0-.32-1.44 2.922 2.922 0 0 0-.853-.96c-.373-.267-.8-.48-1.28-.8a14.9 14.9 0 0 1-1.6-.8 9.264 9.264 0 0 1-2.667-1.867 3.444 3.444 0 0 1-.853-2.453 3.346 3.346 0 0 1 .48-1.867 4.7 4.7 0 0 1 1.173-1.333 5.625 5.625 0 0 1 1.6-.8 5.046 5.046 0 0 1 1.76-.267 10.092 10.092 0 0 1 1.653.16 5.163 5.163 0 0 1 1.76.747l.16 3.147a6.734 6.734 0 0 0-.427-.96 3.528 3.528 0 0 0-.8-1.013 4.562 4.562 0 0 0-1.173-.8 3.579 3.579 0 0 0-1.493-.32 3.031 3.031 0 0 0-1.28.267 1.648 1.648 0 0 0-.8.64 2.924 2.924 0 0 0-.427.8 2.364 2.364 0 0 0-.16.8 2.886 2.886 0 0 0 .16 1.013 5.993 5.993 0 0 0 .587.8 5.543 5.543 0 0 0 1.013.693c.427.213.907.48 1.493.8.587.267 1.12.533 1.707.8a5.652 5.652 0 0 1 1.44.96 3.556 3.556 0 0 1 1.013 1.333 4.913 4.913 0 0 1 .428 2.027z" class="cls-1" data-name="Path 1129" transform="translate(-79.5 -31.1)"/>
            <path id="Path_1130" d="M110.887 46.607a7.1 7.1 0 0 1-.373 2.027 5.014 5.014 0 0 1-1.067 1.867 6.7 6.7 0 0 1-1.76 1.44 4.837 4.837 0 0 1-2.4.533 5.948 5.948 0 0 1-1.44-.16 4.82 4.82 0 0 1-1.12-.427v4.907a.858.858 0 0 0 .16.587 1.513 1.513 0 0 0 .48.32h-3.307c.16-.107.373-.16.48-.32a.958.958 0 0 0 .16-.587V42.553a.89.89 0 0 0-.267-.747c-.16-.107-.373-.16-.533-.267l2.88-.64v1.493a2.037 2.037 0 0 1 .48-.48 5.269 5.269 0 0 1 .8-.48 4.005 4.005 0 0 1 .96-.373 4.06 4.06 0 0 1 1.12-.16 4.5 4.5 0 0 1 1.6.32 3.537 3.537 0 0 1 1.493 1.067 5.854 5.854 0 0 1 1.12 1.76 5.493 5.493 0 0 1 .534 2.561zm-2.293.16a6.644 6.644 0 0 0-.32-2.24 3.8 3.8 0 0 0-.8-1.387 3.334 3.334 0 0 0-1.067-.693 2.485 2.485 0 0 0-1.013-.16 3.4 3.4 0 0 0-1.44.373 2.264 2.264 0 0 0-1.013.8v6.987a4.165 4.165 0 0 0 .853.8 2.611 2.611 0 0 0 1.333.373 3.041 3.041 0 0 0 2.56-1.28 6.569 6.569 0 0 0 .906-3.573z" class="cls-1" data-name="Path 1130" transform="translate(-89.02 -35.673)"/>
            <path id="Path_1131" d="M129.713 52.573a1.543 1.543 0 0 1-.587-.587 2.664 2.664 0 0 1-.213-1.173 6.972 6.972 0 0 1-.64.587 2.323 2.323 0 0 1-.853.533 6.357 6.357 0 0 1-1.067.427 4.442 4.442 0 0 1-1.173.16 2.6 2.6 0 0 1-1.333-.32 2.655 2.655 0 0 1-.907-.8 2.7 2.7 0 0 1-.48-.96 2.932 2.932 0 0 1-.16-.853 3.52 3.52 0 0 1 .32-1.44 2.943 2.943 0 0 1 1.28-1.28 5.973 5.973 0 0 1 1.173-.48l1.44-.48a7.757 7.757 0 0 0 1.333-.48 2.753 2.753 0 0 0 .907-.48.537.537 0 0 0 .053-.16c0-.107.053-.213.053-.32v-.48a4.732 4.732 0 0 0-.107-.8 2.214 2.214 0 0 0-.373-.693 2.015 2.015 0 0 0-.64-.48 1.827 1.827 0 0 0-.96-.16 3.494 3.494 0 0 0-1.333.267 2.607 2.607 0 0 0-.96.747 5.258 5.258 0 0 0-.693 1.067 11.652 11.652 0 0 0-.48 1.227l-.053-2.987c.213-.16.48-.267.693-.427a2.787 2.787 0 0 1 .8-.373c.267-.107.64-.16 1.013-.267a4.782 4.782 0 0 1 1.28-.107 9.579 9.579 0 0 1 1.173.107 3.905 3.905 0 0 1 1.227.48 2.22 2.22 0 0 1 .96 1.013 3.23 3.23 0 0 1 .427 1.707v6.4a2.779 2.779 0 0 0 .107.747c.053.16.267.32.64.373zm-.853-6.507c-.373.16-.8.373-1.12.48q-.56.16-1.44.48a5.315 5.315 0 0 0-1.44.8 1.806 1.806 0 0 0-.587 1.44 1.956 1.956 0 0 0 .48 1.44 1.658 1.658 0 0 0 1.333.48 3.483 3.483 0 0 0 1.547-.373 4.736 4.736 0 0 0 1.173-.853l.053-3.893z" class="cls-1" data-name="Path 1131" transform="translate(-99.473 -35.72)"/>
            <path id="Path_1132" d="M148.747 43.307a1.845 1.845 0 0 0-.587-.533 1.276 1.276 0 0 0-.8-.16 2.013 2.013 0 0 0-1.227.427 4.291 4.291 0 0 0-.853.853v7.466a.858.858 0 0 0 .16.587 3.742 3.742 0 0 0 .48.32h-3.307a3.743 3.743 0 0 0 .48-.32.858.858 0 0 0 .16-.587V42.4a.967.967 0 0 0-.267-.747 6.253 6.253 0 0 0-.587-.267l2.987-.587v2.08a5.411 5.411 0 0 1 .48-.693 8.5 8.5 0 0 1 .693-.693 6.471 6.471 0 0 1 .747-.533 1.11 1.11 0 0 1 .694-.16 1.2 1.2 0 0 1 .533.053 1.274 1.274 0 0 0 .373.16l-.16 2.293z" class="cls-1" data-name="Path 1132" transform="translate(-108.853 -35.627)"/>
            <path id="Path_1133" d="M157.753 45.907v.693a9.914 9.914 0 0 0 .213 1.76 4.624 4.624 0 0 0 .747 1.44 3.352 3.352 0 0 0 2.88 1.387 4.936 4.936 0 0 0 1.227-.213 5.517 5.517 0 0 0 1.12-.587 3.265 3.265 0 0 0 .907-.8 1.887 1.887 0 0 0 .533-.853 3.608 3.608 0 0 1-.373 1.44 3.5 3.5 0 0 1-.96 1.227 4.3 4.3 0 0 1-1.44.853 4.7 4.7 0 0 1-1.76.32 5.349 5.349 0 0 1-2.293-.48 6.144 6.144 0 0 1-1.76-1.333 6.915 6.915 0 0 1-1.12-1.813 5.832 5.832 0 0 1 0-4.107 5.014 5.014 0 0 1 1.067-1.867 6.7 6.7 0 0 1 1.76-1.44A4.975 4.975 0 0 1 160.9 41a5.236 5.236 0 0 1 1.547.267 3.97 3.97 0 0 1 1.44.853 4.7 4.7 0 0 1 1.067 1.547 5.865 5.865 0 0 1 .427 2.293l-7.627-.053zM163.3 45a5.138 5.138 0 0 0-.213-1.44 2.674 2.674 0 0 0-.587-1.013 1.346 1.346 0 0 0-.8-.533 6.012 6.012 0 0 0-.96-.16 2.479 2.479 0 0 0-1.12.267 2.283 2.283 0 0 0-.853.747 5.044 5.044 0 0 0-.587 1.067 4.659 4.659 0 0 0-.267 1.173L163.3 45z" class="cls-1" data-name="Path 1133" transform="translate(-114.873 -35.72)"/>
            <path id="Path_1134" d="M195.82 42.993a4.214 4.214 0 0 1-.48 2.027 5.821 5.821 0 0 1-1.227 1.547 6.875 6.875 0 0 1-1.707 1.013 6.128 6.128 0 0 1-1.92.373 5.948 5.948 0 0 1-1.44-.16 6.675 6.675 0 0 1-1.227-.373c-.373-.16-.693-.267-1.013-.427-.267-.16-.533-.267-.8-.427l-.106-3.626c.16.427.32.853.533 1.333a4.876 4.876 0 0 0 .853 1.28 5.741 5.741 0 0 0 1.28.96 3.5 3.5 0 0 0 1.707.373 3.562 3.562 0 0 0 1.6-.32 2.605 2.605 0 0 0 1.013-.8 2.749 2.749 0 0 0 .48-1.067 3.94 3.94 0 0 0 .16-1.013 2.879 2.879 0 0 0-.32-1.44 2.923 2.923 0 0 0-.853-.96c-.373-.267-.8-.48-1.28-.8a14.9 14.9 0 0 1-1.6-.8 9.264 9.264 0 0 1-2.667-1.867 3.444 3.444 0 0 1-.853-2.453 3.346 3.346 0 0 1 .48-1.867 4.7 4.7 0 0 1 1.173-1.333 5.625 5.625 0 0 1 1.6-.8 6.706 6.706 0 0 1 1.76-.267 10.092 10.092 0 0 1 1.653.16 5.163 5.163 0 0 1 1.76.747l.16 3.147a6.736 6.736 0 0 0-.427-.96 3.528 3.528 0 0 0-.8-1.013 4.562 4.562 0 0 0-1.173-.8 3.407 3.407 0 0 0-1.493-.32 3.031 3.031 0 0 0-1.28.267 1.648 1.648 0 0 0-.8.64 2.924 2.924 0 0 0-.427.8 2.364 2.364 0 0 0-.16.8 2.887 2.887 0 0 0 .16 1.013 5.994 5.994 0 0 0 .587.8 5.543 5.543 0 0 0 1.013.693c.427.213.907.48 1.493.8.587.267 1.12.533 1.707.8a5.652 5.652 0 0 1 1.44.96 3.556 3.556 0 0 1 1.013 1.333 4.192 4.192 0 0 1 .428 2.027z" class="cls-1" data-name="Path 1134" transform="translate(-129.153 -31.1)"/>
            <path id="Path_1135" d="M212.827 49.147a.86.86 0 0 1-.16.48c-.16.16-.32.373-.48.533a2.826 2.826 0 0 1-.8.427 2.584 2.584 0 0 1-.96.16 3.4 3.4 0 0 1-2.4-.853 3.345 3.345 0 0 1-.96-2.613v-6.828H206l3.093-3.253v2.187h3.307V40.4h-3.36v6.773a4.348 4.348 0 0 0 .213 1.333 3.107 3.107 0 0 0 .587.8 1.87 1.87 0 0 0 .747.32 3.193 3.193 0 0 0 .64.107 1.824 1.824 0 0 0 .587-.053c.16-.053.267-.107.427-.16.107-.053.213-.16.267-.16a3.267 3.267 0 0 1 .319-.213z" class="cls-1" data-name="Path 1135" transform="translate(-138.533 -33.947)"/>
            <path id="Path_1136" d="M221.353 45.907v.693a9.914 9.914 0 0 0 .213 1.76 4.624 4.624 0 0 0 .747 1.44 4.234 4.234 0 0 0 1.173 1.013 3.5 3.5 0 0 0 1.707.373 4.936 4.936 0 0 0 1.227-.213 5.517 5.517 0 0 0 1.12-.587 3.265 3.265 0 0 0 .907-.8 1.887 1.887 0 0 0 .533-.853 3.608 3.608 0 0 1-.373 1.44 3.5 3.5 0 0 1-.96 1.227 4.3 4.3 0 0 1-1.44.853 4.7 4.7 0 0 1-1.76.32 5.349 5.349 0 0 1-2.293-.48 6.144 6.144 0 0 1-1.76-1.333 6.915 6.915 0 0 1-1.12-1.813 5.832 5.832 0 0 1 0-4.107 5.014 5.014 0 0 1 1.067-1.867 6.7 6.7 0 0 1 1.76-1.44A4.975 4.975 0 0 1 224.5 41a5.236 5.236 0 0 1 1.547.267 3.97 3.97 0 0 1 1.44.853 4.7 4.7 0 0 1 1.067 1.547 5.865 5.865 0 0 1 .427 2.293l-7.627-.053zM226.9 45a5.138 5.138 0 0 0-.213-1.44 2.674 2.674 0 0 0-.587-1.013 1.346 1.346 0 0 0-.8-.533 2.029 2.029 0 0 0-.96-.16 2.479 2.479 0 0 0-1.12.267 2.283 2.283 0 0 0-.853.747 5.043 5.043 0 0 0-.587 1.067 4.658 4.658 0 0 0-.267 1.173L226.9 45z" class="cls-1" data-name="Path 1136" transform="translate(-144.553 -35.72)"/>
            <path id="Path_1137" d="M248.6 52.48a2.257 2.257 0 0 1-.373-.267 1.691 1.691 0 0 1-.267-.32.745.745 0 0 1-.16-.48 2.606 2.606 0 0 1-.053-.693 4.505 4.505 0 0 1-1.44 1.12 3.661 3.661 0 0 1-2.08.533 4.756 4.756 0 0 1-1.173-.16 3.125 3.125 0 0 1-1.173-.747 3.31 3.31 0 0 1-.907-1.387 6.53 6.53 0 0 1-.373-2.24V42.4a1.274 1.274 0 0 0-.107-.48c-.053-.107-.107-.16-.16-.267-.107-.053-.16-.107-.267-.16s-.16-.053-.267-.107l2.933-.587v7.093a3.274 3.274 0 0 0 .747 2.347 2.279 2.279 0 0 0 1.76.8 2.721 2.721 0 0 0 1.44-.373 7.8 7.8 0 0 0 1.12-.853V42.4a.967.967 0 0 0-.267-.747c-.16-.107-.373-.16-.533-.267l2.88-.587v9.44a2.125 2.125 0 0 0 .16.907 1.214 1.214 0 0 0 .8.48z" class="cls-1" data-name="Path 1137" transform="translate(-154.307 -35.627)"/>
            <path id="Path_1138" d="M264.553 45.907v.693a9.917 9.917 0 0 0 .213 1.76 4.624 4.624 0 0 0 .747 1.44 4.233 4.233 0 0 0 1.173 1.013 3.367 3.367 0 0 0 1.707.373 4.936 4.936 0 0 0 1.227-.213 5.516 5.516 0 0 0 1.12-.587 4.249 4.249 0 0 0 .907-.8 1.887 1.887 0 0 0 .533-.853 3.609 3.609 0 0 1-.373 1.44 3.5 3.5 0 0 1-.96 1.227 4.3 4.3 0 0 1-1.44.853 4.7 4.7 0 0 1-1.76.32 5.349 5.349 0 0 1-2.293-.48 6.144 6.144 0 0 1-1.76-1.333 6.915 6.915 0 0 1-1.12-1.813 5.832 5.832 0 0 1 0-4.107 5.014 5.014 0 0 1 1.067-1.867 6.7 6.7 0 0 1 1.76-1.44A4.975 4.975 0 0 1 267.7 41a5.236 5.236 0 0 1 1.547.267 3.97 3.97 0 0 1 1.44.853 4.7 4.7 0 0 1 1.067 1.547 5.865 5.865 0 0 1 .427 2.293l-7.627-.053zM270.1 45a5.138 5.138 0 0 0-.213-1.44 2.674 2.674 0 0 0-.587-1.013 1.346 1.346 0 0 0-.8-.533 2.029 2.029 0 0 0-.96-.16 2.479 2.479 0 0 0-1.12.267 2.283 2.283 0 0 0-.853.747 5.043 5.043 0 0 0-.587 1.067 4.657 4.657 0 0 0-.267 1.173L270.1 45z" class="cls-1" data-name="Path 1138" transform="translate(-164.713 -35.72)"/>
            <path id="Path_1139" d="M289.847 43.307a1.845 1.845 0 0 0-.587-.533 1.276 1.276 0 0 0-.8-.16 2.013 2.013 0 0 0-1.227.427 4.292 4.292 0 0 0-.853.853v7.466a.858.858 0 0 0 .16.587 3.744 3.744 0 0 0 .48.32h-3.307a3.74 3.74 0 0 0 .48-.32.858.858 0 0 0 .16-.587V42.4a.967.967 0 0 0-.267-.747 6.258 6.258 0 0 0-.587-.267l2.987-.587v2.08a5.409 5.409 0 0 1 .48-.693 8.495 8.495 0 0 1 .693-.693 6.471 6.471 0 0 1 .747-.533 1.11 1.11 0 0 1 .693-.16 1.2 1.2 0 0 1 .533.053.822.822 0 0 0 .373.16l-.16 2.293z" class="cls-1" data-name="Path 1139" transform="translate(-174.7 -35.627)"/>
            <path id="Path_1140" d="M304.447 52.26a1.861 1.861 0 0 0 .48-.32.858.858 0 0 0 .16-.587v-6.24a6.533 6.533 0 0 0-.107-1.013 1.562 1.562 0 0 0-.373-.853 1.94 1.94 0 0 0-.8-.64 3.031 3.031 0 0 0-1.28-.267 2.827 2.827 0 0 0-1.44.427 3.345 3.345 0 0 0-1.013.8v7.787a.858.858 0 0 0 .16.587 1.862 1.862 0 0 0 .48.32h-3.307l.48-.32a.858.858 0 0 0 .16-.587v-8.907a1.243 1.243 0 0 0-.213-.747 2.491 2.491 0 0 0-.533-.267l2.88-.533v1.707a4.808 4.808 0 0 1 .533-.48 5.193 5.193 0 0 1 .8-.533c.32-.16.64-.32 1.013-.48a2.723 2.723 0 0 1 1.12-.16 5.789 5.789 0 0 1 1.333.213 3.837 3.837 0 0 1 1.12.64 3.3 3.3 0 0 1 .8 1.067 3.82 3.82 0 0 1 .32 1.44v7.146a.858.858 0 0 0 .16.587 3.744 3.744 0 0 0 .48.32c-.053-.107-3.413-.107-3.413-.107z" class="cls-1" data-name="Path 1140" transform="translate(-181.14 -35.673)"/>
        </g>
        <g id="XMLID_1_">
            <g id="XMLID_566_">
                <g id="Group_753" data-name="Group 753">
                    <path id="XMLID_567_" d="M4.533 23.08C4.587 16.1 0 0 0 0s20.747 19.216 22.773 35.533c-5.92-.483-20.96 6.334-20.96 6.334a80.373 80.373 0 0 0 2.72-18.787z" class="cls-2"/>
                </g>
            </g>
            <path id="Path_1141" d="M22.3 3.9s2.24 7.837 3.573 14.922c3.947 5.9 7.413 12.614 8.16 19-2.133-.161-5.28.537-8.48 1.61-.747 3.918-1.44 6.387-1.44 6.387S38.193 39 44.167 39.486C42.14 23.116 22.3 3.9 22.3 3.9z" class="cls-2" data-name="Path 1141" transform="translate(-10.407 -1.82)"/>
        </g>
    </g>
</svg>
