<svg xmlns="http://www.w3.org/2000/svg" width="1920" height="863" viewBox="0 0 1920 863">
    <defs>
        <style>
            .cls-1{fill:#ddf3fc}.cls-2{clip-path:url(#clip-path)}.cls-3{fill:#f4fcff}.cls-4{fill:#e9f8fe}.cls-5{fill:#fff}
        </style>
        <clipPath id="clip-path">
            <path id="section_bg" d="M0 0h1920v863H0z" class="cls-1" transform="translate(-646.742 -432.825)"/>
        </clipPath>
    </defs>
    <g id="waves_2" transform="translate(646.742 432.825)">
        <g id="Mask_Group_2" class="cls-2" data-name="Mask Group 2">
            <g id="Group_748" data-name="Group 748">
                <path id="Path_1077" d="M1918 3125.7s-225.813 165.3-502.365 188.134-392.071-18.022-698.295-33.659S0 3391.062 0 3391.062V3978.7h1918z" class="cls-3" data-name="Path 1077" transform="translate(-645.742 -3548.528)"/>
                <path id="Path_1092" d="M0 318.825S94.689-18.4 413.357 145.681C861.51 397.257 898.329-4.232 1334.9 33.328c415.482 11.4 386.671 285.5 386.671 285.5z" class="cls-4" data-name="Path 1092" transform="translate(-14.742 111.351)"/>
                <path id="Path_1093" d="M-346.168 1640.327s126.86-430.2 219.9-866.856C-54.5 431.019 112.129 227.544 293.749 287.405c395.417 101.956 433.17-89.774 469.622-274.9 29.792-150.96 209.742-45.113 271.078 78.4s168.936 123.515 168.936 123.515l12.192 1425.907z" class="cls-3" data-name="Path 1093" transform="translate(591.872 217.053)"/>
            </g>
            <path id="Path_1124" d="M138.739 1087.259h-7.679c-50.682-1.536-92.532-21.885-114.8-54.9-32.252-48.378-21.5-128.24 76.406-196.967l.384.768-.384-.768c32.636-22.653 64.12-42.619 94.836-61.816 101.747-63.736 189.672-119.025 252.256-247.265 20.732-42.624 37.242-94.457 54.52-148.978 46.458-146.669 99.443-313.3 256.1-364.754 152.045-49.914 354.387 57.209 477.635 178.153 94.452 92.532 139.758 185.832 120.177 249.568-12.67 41.083-50.3 67.959-112.882 79.478-60.28 11.135-117.105 6.911-172.394 2.3-95.988-7.679-186.6-14.59-279.516 62.2-66.812 55.294-127.861 122.869-186.989 188.522-82.166 91.38-167.4 186.216-272.605 252.64-64.504 40.317-128.24 61.819-185.065 61.819zM832.923 1.829c-28.412 0-56.057 3.84-82.166 12.286C594.873 65.18 542.272 231.047 495.814 377.333c-17.278 54.905-33.788 106.738-54.521 149.357C378.708 655.7 290.4 710.986 188.269 775.106c-30.716 19.2-62.2 39.163-94.452 61.816C-2.555 904.882-13.69 983.208 18.178 1031.2c43 64.5 161.643 82.55 304.857-8.063 104.819-66.424 190.056-160.876 272.221-252.256 59.128-65.656 120.177-133.615 186.984-188.9 93.684-77.174 184.3-69.879 280.668-62.584 54.905 4.223 111.73 8.831 172.01-2.3 61.432-11.519 99.059-37.627 111.346-77.942 18.814-62.2-26.877-157.036-119.793-247.649C1124.726 92.057 969.226 1.829 832.923 1.829z" class="cls-5" data-name="Path 1124" transform="scale(-1) rotate(-85.99 -614.703 321.808)"/>
        </g>
    </g>
</svg>
