<?xml version="1.0" standalone="no"?>
<!DOCTYPE svg PUBLIC "-//W3C//DTD SVG 20010904//EN"
 "http://www.w3.org/TR/2001/REC-SVG-20010904/DTD/svg10.dtd">
<svg version="1.0" xmlns="http://www.w3.org/2000/svg"
 width="803.000000pt" height="803.000000pt" viewBox="0 0 803.000000 803.000000"
 preserveAspectRatio="xMidYMid meet">
<metadata>
Created by potrace 1.11, written by Peter Selinger 2001-2013
</metadata>
<g transform="translate(0.000000,803.000000) scale(0.100000,-0.100000)"
fill="#000000" stroke="none">
<path d="M1373 7665 c11 -35 68 -239 72 -255 2 -8 27 -100 55 -205 53 -197
198 -769 243 -960 74 -313 88 -371 93 -399 3 -17 11 -56 19 -86 8 -30 16 -68
19 -85 3 -16 16 -80 30 -140 20 -91 81 -395 101 -503 3 -15 7 -38 10 -52 18
-88 89 -538 100 -631 3 -25 7 -54 9 -65 2 -10 7 -53 11 -94 4 -41 8 -86 10
-100 16 -132 20 -237 20 -490 -1 -255 -9 -498 -20 -620 -2 -19 -6 -78 -10
-130 -3 -52 -8 -113 -10 -135 -7 -86 -16 -182 -20 -215 -3 -19 -7 -60 -10 -90
-9 -80 -15 -133 -45 -365 -20 -156 -26 -194 -35 -245 -2 -14 -7 -43 -10 -65
-3 -23 -7 -52 -10 -65 -3 -13 -7 -42 -10 -65 -13 -88 -42 -249 -87 -470 -11
-55 -22 -111 -24 -124 -5 -25 -17 -78 -54 -241 -18 -82 -103 -424 -116 -472
-4 -14 6 -11 56 13 33 16 62 29 65 29 2 0 46 20 97 44 362 171 985 426 1416
581 137 49 131 52 108 -48 -8 -34 -27 -114 -41 -177 -15 -63 -29 -124 -31
-135 -2 -11 -22 -87 -44 -169 -21 -83 -38 -151 -37 -152 1 -1 58 24 126 57 68
32 126 59 128 59 5 0 74 31 191 86 40 19 75 34 78 34 3 0 31 12 62 26 93 42
515 216 677 279 83 31 179 69 215 82 71 28 479 174 495 177 6 1 60 19 120 38
272 90 569 168 815 217 194 38 200 39 285 46 38 4 76 8 83 11 8 2 74 4 149 5
l135 0 -7 52 c-15 115 -51 304 -89 468 -55 231 -216 719 -296 895 -11 24 -20
45 -20 48 0 14 -184 415 -255 556 -132 260 -309 579 -448 804 -7 11 -27 45
-46 75 -214 351 -529 807 -873 1264 -24 32 -233 301 -255 327 -7 8 -45 56 -84
105 -200 249 -459 555 -649 765 -37 41 -82 93 -101 114 -19 22 -43 49 -54 61
-11 11 -62 67 -114 123 -134 146 -151 164 -273 290 l-109 113 3 -313 4 -313
71 -280 c40 -154 74 -291 76 -305 3 -14 13 -54 22 -90 9 -36 19 -76 22 -90 2
-14 15 -72 29 -130 14 -58 36 -157 50 -220 14 -63 26 -122 28 -130 7 -26 58
-273 63 -305 3 -16 13 -68 23 -115 10 -47 17 -86 15 -88 -1 -1 -31 37 -66 85
-80 111 -351 476 -359 483 -3 3 -46 57 -95 120 -101 131 -208 263 -375 465
-152 184 -153 185 -170 204 -9 9 -56 63 -105 121 -50 58 -93 107 -96 110 -3 3
-65 73 -138 155 -316 356 -820 880 -808 840z"/>
<path d="M2976 7623 c27 -87 32 -106 99 -358 37 -137 72 -270 80 -295 11 -40
13 -15 14 229 l1 274 -100 99 c-55 54 -102 98 -104 98 -3 0 2 -21 10 -47z"/>
</g>
</svg>
